<?xml version="1.0"?>
<svg xmlns="http://www.w3.org/2000/svg" version="1.1" width="1328.40576171875pt" height="632.142700195313pt" viewBox="-438.272163418304 -219.841419129336 1328.40571599676 632.14269906037" preserveAspectRatio="none" xmlns:xlink="http://www.w3.org/1999/xlink">
  <defs>
  </defs>
  <path d="M-39.2387962341309,73.7740631103516 L-74.9969253540039,100.040908813477 " stroke="#6E6E6E" fill="none" stroke-width="1" stroke-opacity="1" />
  <path d="M-79.5907287597656,103.415374755859 L-76.3111953735352,98.2517471313477 L-73.6826629638672,101.830070495605 L-79.5907287597656,103.415374755859 " stroke="none" fill="#6E6E6E" fill-rule="evenodd" stroke-width="0" fill-opacity="1" />
  <path d="M-79.5907287597656,103.415374755859 L-76.3111953735352,98.2517471313477 L-73.6826629638672,101.830070495605 L-79.5907287597656,103.415374755859 " stroke="#6E6E6E" fill="none" stroke-width="1" stroke-opacity="1" />
  <path d="M-73.9202651977539,126.382583618164 L-54.6396179199219,126.310729980469 " stroke="#6E6E6E" fill="none" stroke-width="1" stroke-opacity="1" />
  <path d="M-48.9396591186523,126.289489746094 L-54.6313438415527,128.530715942383 L-54.647891998291,124.090744018555 L-48.9396591186523,126.289489746094 " stroke="none" fill="#6E6E6E" fill-rule="evenodd" stroke-width="0" fill-opacity="1" />
  <path d="M-48.9396591186523,126.289489746094 L-54.6313438415527,128.530715942383 L-54.647891998291,124.090744018555 L-48.9396591186523,126.289489746094 " stroke="#6E6E6E" fill="none" stroke-width="1" stroke-opacity="1" />
  <path d="M-163.483612060547,-11.1851863861084 L-150.621139526367,-11.1851863861084 " stroke="#6E6E6E" fill="none" stroke-width="1" stroke-opacity="1" />
  <path d="M-144.921127319336,-11.1851873397827 L-150.621139526367,-8.96518707275391 L-150.621139526367,-13.4051866531372 L-144.921127319336,-11.1851873397827 " stroke="none" fill="#6E6E6E" fill-rule="evenodd" stroke-width="0" fill-opacity="1" />
  <path d="M-144.921127319336,-11.1851873397827 L-150.621139526367,-8.96518707275391 L-150.621139526367,-13.4051866531372 L-144.921127319336,-11.1851873397827 " stroke="#6E6E6E" fill="none" stroke-width="1" stroke-opacity="1" />
  <path d="M-106.987243652344,-61.3516387939453 L-107.323303222656,-40.5094451904297 " stroke="#6E6E6E" fill="none" stroke-width="1" stroke-opacity="1" />
  <path d="M-107.415191650391,-34.810188293457 L-109.543014526367,-40.545238494873 L-105.103591918945,-40.4736595153809 L-107.415191650391,-34.810188293457 " stroke="none" fill="#6E6E6E" fill-rule="evenodd" stroke-width="0" fill-opacity="1" />
  <path d="M-107.415191650391,-34.810188293457 L-109.543014526367,-40.545238494873 L-105.103591918945,-40.4736595153809 L-107.415191650391,-34.810188293457 " stroke="#6E6E6E" fill="none" stroke-width="1" stroke-opacity="1" />
  <path d="M-45.9095039367676,-63.6412658691406 L-75.5756607055664,-38.4957618713379 " stroke="#6E6E6E" fill="none" stroke-width="1" stroke-opacity="1" />
  <path d="M-79.9238357543945,-34.810188293457 L-77.011100769043,-40.1892585754395 L-74.1402359008789,-36.8022651672363 L-79.9238357543945,-34.810188293457 " stroke="none" fill="#6E6E6E" fill-rule="evenodd" stroke-width="0" fill-opacity="1" />
  <path d="M-79.9238357543945,-34.810188293457 L-77.011100769043,-40.1892585754395 L-74.1402359008789,-36.8022651672363 L-79.9238357543945,-34.810188293457 " stroke="#6E6E6E" fill="none" stroke-width="1" stroke-opacity="1" />
  <path d="M-70.6711273193359,-11.1851863861084 L-59.4961280822754,-11.1851863861084 " stroke="#6E6E6E" fill="none" stroke-width="1" stroke-opacity="1" />
  <path d="M-53.7961273193359,-11.1851873397827 L-59.4961280822754,-8.96518707275391 L-59.4961280822754,-13.4051866531372 L-53.7961273193359,-11.1851873397827 " stroke="none" fill="#6E6E6E" fill-rule="evenodd" stroke-width="0" fill-opacity="1" />
  <path d="M-53.7961273193359,-11.1851873397827 L-59.4961280822754,-8.96518707275391 L-59.4961280822754,-13.4051866531372 L-53.7961273193359,-11.1851873397827 " stroke="#6E6E6E" fill="none" stroke-width="1" stroke-opacity="1" />
  <path d="M-354.171112060547,-43.810188293457 L-342.714874267578,-43.810188293457 " stroke="#6E6E6E" fill="none" stroke-width="1" stroke-opacity="1" />
  <path d="M-337.014862060547,-43.8101921081543 L-342.714874267578,-41.5901908874512 L-342.714874267578,-46.0301895141602 L-337.014862060547,-43.8101921081543 " stroke="none" fill="#6E6E6E" fill-rule="evenodd" stroke-width="0" fill-opacity="1" />
  <path d="M-337.014862060547,-43.8101921081543 L-342.714874267578,-41.5901908874512 L-342.714874267578,-46.0301895141602 L-337.014862060547,-43.8101921081543 " stroke="#6E6E6E" fill="none" stroke-width="1" stroke-opacity="1" />
  <path d="M-265.155090332031,-54.7272720336914 L-237.070251464844,-64.4173583984375 " stroke="#6E6E6E" fill="none" stroke-width="1" stroke-opacity="1" />
  <path d="M-231.681976318359,-66.276481628418 L-236.34619140625,-62.3187637329102 L-237.794342041016,-66.5159606933594 L-231.681976318359,-66.276481628418 " stroke="none" fill="#6E6E6E" fill-rule="evenodd" stroke-width="0" fill-opacity="1" />
  <path d="M-231.681976318359,-66.276481628418 L-236.34619140625,-62.3187637329102 L-237.794342041016,-66.5159606933594 L-231.681976318359,-66.276481628418 " stroke="#6E6E6E" fill="none" stroke-width="1" stroke-opacity="1" />
  <path d="M-265.040283203125,-33.0392036437988 L-238.76448059082,-24.1269435882568 " stroke="#6E6E6E" fill="none" stroke-width="1" stroke-opacity="1" />
  <path d="M-233.36653137207,-22.2960586547852 L-239.477569580078,-22.0245838165283 L-238.051406860352,-26.2293033599854 L-233.36653137207,-22.2960586547852 " stroke="none" fill="#6E6E6E" fill-rule="evenodd" stroke-width="0" fill-opacity="1" />
  <path d="M-233.36653137207,-22.2960586547852 L-239.477569580078,-22.0245838165283 L-238.051406860352,-26.2293033599854 L-233.36653137207,-22.2960586547852 " stroke="#6E6E6E" fill="none" stroke-width="1" stroke-opacity="1" />
  <path d="M-40.6829719543457,6.69605588912964 L-72.6389694213867,30.493185043335 " stroke="#6E6E6E" fill="none" stroke-width="1" stroke-opacity="1" />
  <path d="M-77.2106094360352,33.8976097106934 L-73.9649047851563,28.7126502990723 L-71.3130340576172,32.2737159729004 L-77.2106094360352,33.8976097106934 " stroke="none" fill="#6E6E6E" fill-rule="evenodd" stroke-width="0" fill-opacity="1" />
  <path d="M-77.2106094360352,33.8976097106934 L-73.9649047851563,28.7126502990723 L-71.3130340576172,32.2737159729004 L-77.2106094360352,33.8976097106934 " stroke="#6E6E6E" fill="none" stroke-width="1" stroke-opacity="1" />
  <path d="M-71.2367401123047,56.6572761535645 L-57.8240165710449,56.4990005493164 " stroke="#6E6E6E" fill="none" stroke-width="1" stroke-opacity="1" />
  <path d="M-52.1244163513184,56.4317398071289 L-57.7978248596191,58.7188415527344 L-57.8502159118652,54.2791519165039 L-52.1244163513184,56.4317398071289 " stroke="none" fill="#6E6E6E" fill-rule="evenodd" stroke-width="0" fill-opacity="1" />
  <path d="M-52.1244163513184,56.4317398071289 L-57.7978248596191,58.7188415527344 L-57.8502159118652,54.2791519165039 L-52.1244163513184,56.4317398071289 " stroke="#6E6E6E" fill="none" stroke-width="1" stroke-opacity="1" />
  <path d="M-194.039291381836,194.47590637207 L-153.989288330078,194.47590637207 " stroke="#6E6E6E" fill="none" stroke-width="1" stroke-opacity="1" />
  <path d="M-148.289276123047,194.475891113281 L-153.989288330078,196.695892333984 L-153.989288330078,192.255905151367 L-148.289276123047,194.475891113281 " stroke="none" fill="#6E6E6E" fill-rule="evenodd" stroke-width="0" fill-opacity="1" />
  <path d="M-148.289276123047,194.475891113281 L-153.989288330078,196.695892333984 L-153.989288330078,192.255905151367 L-148.289276123047,194.475891113281 " stroke="#6E6E6E" fill="none" stroke-width="1" stroke-opacity="1" />
  <path d="M-36.9637489318848,143.441070556641 L-73.7298431396484,168.728637695313 " stroke="#6E6E6E" fill="none" stroke-width="1" stroke-opacity="1" />
  <path d="M-78.4262313842773,171.958801269531 L-74.9878997802734,166.899520874023 L-72.4717788696289,170.557754516602 L-78.4262313842773,171.958801269531 " stroke="none" fill="#6E6E6E" fill-rule="evenodd" stroke-width="0" fill-opacity="1" />
  <path d="M-78.4262313842773,171.958801269531 L-74.9878997802734,166.899520874023 L-72.4717788696289,170.557754516602 L-78.4262313842773,171.958801269531 " stroke="#6E6E6E" fill="none" stroke-width="1" stroke-opacity="1" />
  <path d="M-74.0392837524414,194.888580322266 L-54.8808937072754,195.101531982422 " stroke="#6E6E6E" fill="none" stroke-width="1" stroke-opacity="1" />
  <path d="M-49.1812477111816,195.16487121582 L-54.9055709838867,197.321380615234 L-54.8562202453613,192.881652832031 L-49.1812477111816,195.16487121582 " stroke="none" fill="#6E6E6E" fill-rule="evenodd" stroke-width="0" fill-opacity="1" />
  <path d="M-49.1812477111816,195.16487121582 L-54.9055709838867,197.321380615234 L-54.8562202453613,192.881652832031 L-49.1812477111816,195.16487121582 " stroke="#6E6E6E" fill="none" stroke-width="1" stroke-opacity="1" />
  <path d="M-72.7461166381836,265.880432128906 L-53.1056632995605,266.065093994141 " stroke="#6E6E6E" fill="none" stroke-width="1" stroke-opacity="1" />
  <path d="M-47.4059181213379,266.118682861328 L-53.126537322998,268.285003662109 L-53.0847969055176,263.845184326172 L-47.4059181213379,266.118682861328 " stroke="none" fill="#6E6E6E" fill-rule="evenodd" stroke-width="0" fill-opacity="1" />
  <path d="M-47.4059181213379,266.118682861328 L-53.126537322998,268.285003662109 L-53.0847969055176,263.845184326172 L-47.4059181213379,266.118682861328 " stroke="#6E6E6E" fill="none" stroke-width="1" stroke-opacity="1" />
  <path d="M258.752410888672,193.47981262207 L288.748260498047,193.714019775391 " stroke="#6E6E6E" fill="none" stroke-width="1" stroke-opacity="1" />
  <path d="M294.448120117188,193.758529663086 L288.73095703125,195.933944702148 L288.765625,191.494079589844 L294.448120117188,193.758529663086 " stroke="none" fill="#6E6E6E" fill-rule="evenodd" stroke-width="0" fill-opacity="1" />
  <path d="M294.448120117188,193.758529663086 L288.73095703125,195.933944702148 L288.765625,191.494079589844 L294.448120117188,193.758529663086 " stroke="#6E6E6E" fill="none" stroke-width="1" stroke-opacity="1" />
  <path d="M332.690734863281,-29.0043411254883 L332.587341308594,7.08970785140991 " stroke="#6E6E6E" fill="none" stroke-width="1" stroke-opacity="1" />
  <path d="M332.571014404297,12.7896842956543 L330.367340087891,7.08334875106812 L334.807342529297,7.09606647491455 L332.571014404297,12.7896842956543 " stroke="none" fill="#6E6E6E" fill-rule="evenodd" stroke-width="0" fill-opacity="1" />
  <path d="M332.571014404297,12.7896842956543 L330.367340087891,7.08334875106812 L334.807342529297,7.09606647491455 L332.571014404297,12.7896842956543 " stroke="#6E6E6E" fill="none" stroke-width="1" stroke-opacity="1" />
  <path d="M331.692932128906,170.432373046875 L332.326019287109,65.7395782470703 " stroke="#6E6E6E" fill="none" stroke-width="1" stroke-opacity="1" />
  <path d="M332.360473632813,60.039680480957 L334.545959472656,65.7529983520508 L330.106048583984,65.7261505126953 L332.360473632813,60.039680480957 " stroke="none" fill="#6E6E6E" fill-rule="evenodd" stroke-width="0" fill-opacity="1" />
  <path d="M332.360473632813,60.039680480957 L334.545959472656,65.7529983520508 L330.106048583984,65.7261505126953 L332.360473632813,60.039680480957 " stroke="#6E6E6E" fill="none" stroke-width="1" stroke-opacity="1" />
  <path d="M369.628326416016,36.6327285766602 L389.020050048828,36.7466239929199 " stroke="#6E6E6E" fill="none" stroke-width="1" stroke-opacity="1" />
  <path d="M394.719970703125,36.780101776123 L389.007049560547,38.9665870666504 L389.033111572266,34.5266609191895 L394.719970703125,36.780101776123 " stroke="none" fill="#6E6E6E" fill-rule="evenodd" stroke-width="0" fill-opacity="1" />
  <path d="M394.719970703125,36.780101776123 L389.007049560547,38.9665870666504 L389.033111572266,34.5266609191895 L394.719970703125,36.780101776123 " stroke="#6E6E6E" fill="none" stroke-width="1" stroke-opacity="1" />
  <path d="M105.751602172852,129.472915649414 L105.15763092041,162.143890380859 " stroke="#6E6E6E" fill="none" stroke-width="1" stroke-opacity="1" />
  <path d="M105.054008483887,167.842956542969 L102.93798828125,162.103530883789 L107.377258300781,162.18424987793 L105.054008483887,167.842956542969 " stroke="none" fill="#6E6E6E" fill-rule="evenodd" stroke-width="0" fill-opacity="1" />
  <path d="M105.054008483887,167.842956542969 L102.93798828125,162.103530883789 L107.377258300781,162.18424987793 L105.054008483887,167.842956542969 " stroke="#6E6E6E" fill="none" stroke-width="1" stroke-opacity="1" />
  <path d="M721.517517089844,142.143783569336 L721.766784667969,168.196166992188 " stroke="#6E6E6E" fill="none" stroke-width="1" stroke-opacity="1" />
  <path d="M721.8212890625,173.895904541016 L719.546875,168.217407226563 L723.986633300781,168.174926757813 L721.8212890625,173.895904541016 " stroke="none" fill="#6E6E6E" fill-rule="evenodd" stroke-width="0" fill-opacity="1" />
  <path d="M721.8212890625,173.895904541016 L719.546875,168.217407226563 L723.986633300781,168.174926757813 L721.8212890625,173.895904541016 " stroke="#6E6E6E" fill="none" stroke-width="1" stroke-opacity="1" />
  <path d="M654.011535644531,198.249404907227 L679.222595214844,197.979461669922 " stroke="#6E6E6E" fill="none" stroke-width="1" stroke-opacity="1" />
  <path d="M684.922302246094,197.918426513672 L679.246398925781,200.199325561523 L679.198852539063,195.759582519531 L684.922302246094,197.918426513672 " stroke="none" fill="#6E6E6E" fill-rule="evenodd" stroke-width="0" fill-opacity="1" />
  <path d="M684.922302246094,197.918426513672 L679.246398925781,200.199325561523 L679.198852539063,195.759582519531 L684.922302246094,197.918426513672 " stroke="#6E6E6E" fill="none" stroke-width="1" stroke-opacity="1" />
  <path d="M759.172302246094,197.613693237305 L800.339904785156,197.716567993164 " stroke="#6E6E6E" fill="none" stroke-width="1" stroke-opacity="1" />
  <path d="M806.039855957031,197.730819702148 L800.334289550781,199.936569213867 L800.345397949219,195.49658203125 L806.039855957031,197.730819702148 " stroke="none" fill="#6E6E6E" fill-rule="evenodd" stroke-width="0" fill-opacity="1" />
  <path d="M806.039855957031,197.730819702148 L800.334289550781,199.936569213867 L800.345397949219,195.49658203125 L806.039855957031,197.730819702148 " stroke="#6E6E6E" fill="none" stroke-width="1" stroke-opacity="1" />
  <path d="M468.952423095703,36.9948539733887 L487.5927734375,36.9932479858398 " stroke="#6E6E6E" fill="none" stroke-width="1" stroke-opacity="1" />
  <path d="M493.292785644531,36.9927558898926 L487.592987060547,39.213249206543 L487.592590332031,34.7732467651367 L493.292785644531,36.9927558898926 " stroke="none" fill="#6E6E6E" fill-rule="evenodd" stroke-width="0" fill-opacity="1" />
  <path d="M493.292785644531,36.9927558898926 L487.592987060547,39.213249206543 L487.592590332031,34.7732467651367 L493.292785644531,36.9927558898926 " stroke="#6E6E6E" fill="none" stroke-width="1" stroke-opacity="1" />
  <path d="M567.542785644531,36.7724609375 L583.797607421875,36.6774024963379 " stroke="#6E6E6E" fill="none" stroke-width="1" stroke-opacity="1" />
  <path d="M589.497497558594,36.6440696716309 L583.810546875,38.8973655700684 L583.784606933594,34.4574394226074 L589.497497558594,36.6440696716309 " stroke="none" fill="#6E6E6E" fill-rule="evenodd" stroke-width="0" fill-opacity="1" />
  <path d="M589.497497558594,36.6440696716309 L583.810546875,38.8973655700684 L583.784606933594,34.4574394226074 L589.497497558594,36.6440696716309 " stroke="#6E6E6E" fill="none" stroke-width="1" stroke-opacity="1" />
  <path d="M663.678405761719,37.0812950134277 L679.406188964844,37.3588485717773 " stroke="#6E6E6E" fill="none" stroke-width="1" stroke-opacity="1" />
  <path d="M685.105285644531,37.4594192504883 L679.367004394531,39.5785026550293 L679.445373535156,35.1391906738281 L685.105285644531,37.4594192504883 " stroke="none" fill="#6E6E6E" fill-rule="evenodd" stroke-width="0" fill-opacity="1" />
  <path d="M685.105285644531,37.4594192504883 L679.367004394531,39.5785026550293 L679.445373535156,35.1391906738281 L685.105285644531,37.4594192504883 " stroke="#6E6E6E" fill="none" stroke-width="1" stroke-opacity="1" />
  <path d="M721.954528808594,61.7395629882813 L721.633666992188,89.2263488769531 " stroke="#6E6E6E" fill="none" stroke-width="1" stroke-opacity="1" />
  <path d="M721.567199707031,94.9259567260742 L719.413879394531,89.200439453125 L723.853576660156,89.2522583007813 L721.567199707031,94.9259567260742 " stroke="none" fill="#6E6E6E" fill-rule="evenodd" stroke-width="0" fill-opacity="1" />
  <path d="M721.567199707031,94.9259567260742 L719.413879394531,89.200439453125 L723.853576660156,89.2522583007813 L721.567199707031,94.9259567260742 " stroke="#6E6E6E" fill="none" stroke-width="1" stroke-opacity="1" />
  <path d="M5.32379007339478,245.003234863281 L85.7130813598633,134.088165283203 " stroke="#6E6E6E" fill="none" stroke-width="1" stroke-opacity="1" />
  <path d="M89.0581359863281,129.472900390625 L87.5106048583984,135.390975952148 L83.9155578613281,132.785354614258 L89.0581359863281,129.472900390625 " stroke="none" fill="#6E6E6E" fill-rule="evenodd" stroke-width="0" fill-opacity="1" />
  <path d="M89.0581359863281,129.472900390625 L87.5106048583984,135.390975952148 L83.9155578613281,132.785354614258 L89.0581359863281,129.472900390625 " stroke="#6E6E6E" fill="none" stroke-width="1" stroke-opacity="1" />
  <path d="M141.706008911133,191.994888305664 L178.803070068359,192.549591064453 " stroke="#6E6E6E" fill="none" stroke-width="1" stroke-opacity="1" />
  <path d="M184.502426147461,192.634826660156 L178.769866943359,194.769348144531 L178.83625793457,190.329849243164 L184.502426147461,192.634826660156 " stroke="none" fill="#6E6E6E" fill-rule="evenodd" stroke-width="0" fill-opacity="1" />
  <path d="M184.502426147461,192.634826660156 L178.769866943359,194.769348144531 L178.83625793457,190.329849243164 L184.502426147461,192.634826660156 " stroke="#6E6E6E" fill="none" stroke-width="1" stroke-opacity="1" />
  <path d="M220.851119995117,128.490203857422 L221.275588989258,163.865341186523 " stroke="#6E6E6E" fill="none" stroke-width="1" stroke-opacity="1" />
  <path d="M221.343963623047,169.564926147461 L219.055725097656,163.891983032227 L223.495407104492,163.83869934082 L221.343963623047,169.564926147461 " stroke="none" fill="#6E6E6E" fill-rule="evenodd" stroke-width="0" fill-opacity="1" />
  <path d="M221.343963623047,169.564926147461 L219.055725097656,163.891983032227 L223.495407104492,163.83869934082 L221.343963623047,169.564926147461 " stroke="#6E6E6E" fill="none" stroke-width="1" stroke-opacity="1" />
  <path d="M-36.6785125732422,213.15510559082 L-73.1882553100586,239.254211425781 " stroke="#6E6E6E" fill="none" stroke-width="1" stroke-opacity="1" />
  <path d="M-77.8252944946289,242.569000244141 L-74.4792861938477,237.448196411133 L-71.8972320556641,241.060195922852 L-77.8252944946289,242.569000244141 " stroke="none" fill="#6E6E6E" fill-rule="evenodd" stroke-width="0" fill-opacity="1" />
  <path d="M-77.8252944946289,242.569000244141 L-74.4792861938477,237.448196411133 L-71.8972320556641,241.060195922852 L-77.8252944946289,242.569000244141 " stroke="#6E6E6E" fill="none" stroke-width="1" stroke-opacity="1" />
  <path d="M5.32379007339478,245.003234863281 L85.7130813598633,134.088165283203 " stroke="#6E6E6E" fill="none" stroke-width="1" stroke-opacity="1" />
  <path d="M89.0581359863281,129.472900390625 L87.5106048583984,135.390975952148 L83.9155578613281,132.785354614258 L89.0581359863281,129.472900390625 " stroke="none" fill="#6E6E6E" fill-rule="evenodd" stroke-width="0" fill-opacity="1" />
  <path d="M89.0581359863281,129.472900390625 L87.5106048583984,135.390975952148 L83.9155578613281,132.785354614258 L89.0581359863281,129.472900390625 " stroke="#6E6E6E" fill="none" stroke-width="1" stroke-opacity="1" />
  <path d="M-139.666320800781,102.895935058594 L-82.424201965332,102.895935058594 L-82.4242172241211,102.895935058594 C-77.7276229858398,102.895927429199 -73.9202728271484,106.703262329102 -73.9202651977539,111.399864196777 C-73.9202651977539,111.399864196777 -73.9202651977539,111.399871826172 -73.9202651977539,111.399871826172 L-73.9202575683594,111.399871826172 L-73.9202575683594,141.641998291016 L-73.9202651977539,141.641983032227 C-73.9202651977539,146.338577270508 -77.7276077270508,150.145919799805 -82.424201965332,150.145919799805 L-82.424201965332,150.145935058594 L-139.666320800781,150.145935058594 L-139.666320800781,150.145919799805 C-144.362915039063,150.145935058594 -148.170257568359,146.338592529297 -148.170257568359,141.641998291016 L-148.170257568359,111.399871826172 L-148.170272827148,111.399871826172 C-148.170272827148,106.703277587891 -144.362930297852,102.895935058594 -139.66633605957,102.895927429199 " stroke="none" fill="#F2E279" fill-rule="evenodd" stroke-width="0" fill-opacity="1" />
  <text x="25.6426887512207" y="37.236442565918" dx="0" dy="0" font-family="Arial" font-size="9.74999970942737pt" fill="#000000" style="text-anchor:start" transform="matrix(0.750000 0.000000 0.000000 0.750000 -148.170257568359 102.895935058594)">Project</text>
  <path d="M-139.666320800781,102.895935058594 L-82.424201965332,102.895935058594 L-82.4242172241211,102.895935058594 C-77.7276229858398,102.895927429199 -73.9202728271484,106.703262329102 -73.9202651977539,111.399864196777 C-73.9202651977539,111.399864196777 -73.9202651977539,111.399871826172 -73.9202651977539,111.399871826172 L-73.9202575683594,111.399871826172 L-73.9202575683594,141.641998291016 L-73.9202651977539,141.641983032227 C-73.9202651977539,146.338577270508 -77.7276077270508,150.145919799805 -82.424201965332,150.145919799805 L-82.424201965332,150.145935058594 L-139.666320800781,150.145935058594 L-139.666320800781,150.145919799805 C-144.362915039063,150.145935058594 -148.170257568359,146.338592529297 -148.170257568359,141.641998291016 L-148.170257568359,111.399871826172 L-148.170272827148,111.399871826172 C-148.170272827148,106.703277587891 -144.362930297852,102.895935058594 -139.66633605957,102.895927429199 " stroke="none" fill="none" stroke-width="0.75" stroke-opacity="0" />
  <path d="M25.2993621826172,126.151168823242 C25.2993545532227,139.198883056641 8.67793655395508,149.776168823242 -11.8256187438965,149.776168823242 C-32.3291893005371,149.776168823242 -48.950626373291,139.19889831543 -48.9506301879883,126.151176452637 C-48.9506301879883,126.151176452637 -48.9506301879883,126.151176452637 -48.9506301879883,126.151176452637 L-48.9506301879883,126.151191711426 C-48.9506530761719,113.103462219238 -32.329231262207,102.526184082031 -11.8256645202637,102.526176452637 C8.67790603637695,102.526161193848 25.2993469238281,113.10343170166 25.2993621826172,126.151176452637 C25.2993621826172,126.151176452637 25.2993621826172,126.151176452637 25.2993621826172,126.151176452637 " stroke="none" fill="#83CC7C" fill-rule="evenodd" stroke-width="0" fill-opacity="1" />
  <text x="18.4126892089844" y="29.7614459991455" dx="0" dy="0" font-family="Arial" font-size="9.74999970942737pt" fill="#000000" style="text-anchor:start" transform="matrix(0.750000 0.000000 0.000000 0.750000 -48.9506301879883 102.526176452637)">Projected </text>
  <text x="5.77668905258179" y="44.7114448547363" dx="0" dy="0" font-family="Arial" font-size="9.74999970942737pt" fill="#000000" style="text-anchor:start" transform="matrix(0.750000 0.000000 0.000000 0.750000 -48.9506301879883 102.526176452637)">Feature Class</text>
  <path d="M25.2993621826172,126.151168823242 C25.2993545532227,139.198883056641 8.67793655395508,149.776168823242 -11.8256187438965,149.776168823242 C-32.3291893005371,149.776168823242 -48.950626373291,139.19889831543 -48.9506301879883,126.151176452637 C-48.9506301879883,126.151176452637 -48.9506301879883,126.151176452637 -48.9506301879883,126.151176452637 L-48.9506301879883,126.151191711426 C-48.9506530761719,113.103462219238 -32.329231262207,102.526184082031 -11.8256645202637,102.526176452637 C8.67790603637695,102.526161193848 25.2993469238281,113.10343170166 25.2993621826172,126.151176452637 C25.2993621826172,126.151176452637 25.2993621826172,126.151176452637 25.2993621826172,126.151176452637 " stroke="none" fill="none" stroke-width="0.75" stroke-opacity="0" />
  <path d="M-136.417190551758,-34.810188293457 L-79.1750717163086,-34.810188293457 L-79.1750869750977,-34.810188293457 C-74.4784927368164,-34.8101959228516 -70.671142578125,-31.0028610229492 -70.6711349487305,-26.3062553405762 C-70.6711349487305,-26.3062534332275 -70.6711349487305,-26.3062515258789 -70.6711349487305,-26.3062496185303 L-70.6711273193359,-26.3062515258789 L-70.6711273193359,3.93587493896484 L-70.6711349487305,3.93586730957031 C-70.6711349487305,8.63246154785156 -74.4784774780273,12.4398040771484 -79.1750717163086,12.4398078918457 L-79.1750717163086,12.439811706543 L-136.417190551758,12.439811706543 L-136.417190551758,12.4398078918457 C-141.113784790039,12.439811706543 -144.921127319336,8.63246917724609 -144.921127319336,3.93587493896484 L-144.921127319336,-26.3062515258789 L-144.921142578125,-26.3062477111816 C-144.921142578125,-31.0028419494629 -141.113800048828,-34.810188293457 -136.417205810547,-34.8101921081543 " stroke="none" fill="#F2E279" fill-rule="evenodd" stroke-width="0" fill-opacity="1" />
  <text x="0.11035567522049" y="29.7614459991455" dx="0" dy="0" font-family="Arial" font-size="9.74999970942737pt" fill="#000000" style="text-anchor:start" transform="matrix(0.750000 0.000000 0.000000 0.750000 -144.921127319336 -34.810188293457)">Make XY Event </text>
  <text x="30.3341903686523" y="44.7114448547363" dx="0" dy="0" font-family="Arial" font-size="9.74999970942737pt" fill="#000000" style="text-anchor:start" transform="matrix(0.750000 0.000000 0.000000 0.750000 -144.921127319336 -34.810188293457)">Layer</text>
  <path d="M-136.417190551758,-34.810188293457 L-79.1750717163086,-34.810188293457 L-79.1750869750977,-34.810188293457 C-74.4784927368164,-34.8101959228516 -70.671142578125,-31.0028610229492 -70.6711349487305,-26.3062553405762 C-70.6711349487305,-26.3062534332275 -70.6711349487305,-26.3062515258789 -70.6711349487305,-26.3062496185303 L-70.6711273193359,-26.3062515258789 L-70.6711273193359,3.93587493896484 L-70.6711349487305,3.93586730957031 C-70.6711349487305,8.63246154785156 -74.4784774780273,12.4398040771484 -79.1750717163086,12.4398078918457 L-79.1750717163086,12.439811706543 L-136.417190551758,12.439811706543 L-136.417190551758,12.4398078918457 C-141.113784790039,12.439811706543 -144.921127319336,8.63246917724609 -144.921127319336,3.93587493896484 L-144.921127319336,-26.3062515258789 L-144.921142578125,-26.3062477111816 C-144.921142578125,-31.0028419494629 -141.113800048828,-34.810188293457 -136.417205810547,-34.8101921081543 " stroke="none" fill="none" stroke-width="0.75" stroke-opacity="0" />
  <path d="M20.4538650512695,-11.1851940155029 C20.453857421875,1.86252975463867 3.83243942260742,12.4398040771484 -16.6711158752441,12.4398078918457 C-37.1746864318848,12.439811706543 -53.7961235046387,1.86254119873047 -53.7961273193359,-11.185188293457 C-53.7961273193359,-11.185188293457 -53.7961273193359,-11.185188293457 -53.7961273193359,-11.185188293457 L-53.7961273193359,-11.1851711273193 C-53.7961502075195,-24.2328968048096 -37.1747283935547,-34.8101806640625 -16.6711616516113,-34.810188293457 C3.8324089050293,-34.8101997375488 20.4538497924805,-24.2329330444336 20.4538650512695,-11.185188293457 C20.4538650512695,-11.185188293457 20.4538650512695,-11.185188293457 20.4538650512695,-11.185188293457 " stroke="none" fill="#83CC7C" fill-rule="evenodd" stroke-width="0" fill-opacity="1" />
  <text x="19.2526893615723" y="37.236442565918" dx="0" dy="0" font-family="Arial" font-size="9.74999970942737pt" fill="#000000" style="text-anchor:start" transform="matrix(0.750000 0.000000 0.000000 0.750000 -53.7961273193359 -34.810188293457)">XY Layer</text>
  <path d="M20.4538650512695,-11.1851940155029 C20.453857421875,1.86252975463867 3.83243942260742,12.4398040771484 -16.6711158752441,12.4398078918457 C-37.1746864318848,12.439811706543 -53.7961235046387,1.86254119873047 -53.7961273193359,-11.185188293457 C-53.7961273193359,-11.185188293457 -53.7961273193359,-11.185188293457 -53.7961273193359,-11.185188293457 L-53.7961273193359,-11.1851711273193 C-53.7961502075195,-24.2328968048096 -37.1747283935547,-34.8101806640625 -16.6711616516113,-34.810188293457 C3.8324089050293,-34.8101997375488 20.4538497924805,-24.2329330444336 20.4538650512695,-11.185188293457 C20.4538650512695,-11.185188293457 20.4538650512695,-11.185188293457 20.4538650512695,-11.185188293457 " stroke="none" fill="none" stroke-width="0.75" stroke-opacity="0" />
  <path d="M-337.014862060547,-43.810188293457 L-316.905487060547,-18.216438293457 L-276.686737060547,-18.216438293457 L-256.577362060547,-43.810188293457 L-276.686737060547,-69.403938293457 L-316.905487060547,-69.403938293457 L-337.014862060547,-43.810188293457 " stroke="none" fill="#F0B871" fill-rule="evenodd" stroke-width="0" fill-opacity="1" />
  <text x="13.6211881637573" y="39.861442565918" dx="0" dy="0" font-family="Arial" font-size="9.74999970942737pt" fill="#000000" style="text-anchor:start" transform="matrix(0.750000 0.000000 0.000000 0.750000 -337.014862060547 -69.403938293457)">Iterate Tables</text>
  <path d="M-337.014862060547,-43.810188293457 L-316.905487060547,-18.216438293457 L-276.686737060547,-18.216438293457 L-256.577362060547,-43.810188293457 L-276.686737060547,-69.403938293457 L-316.905487060547,-69.403938293457 L-337.014862060547,-43.810188293457 " stroke="none" fill="none" stroke-width="0.75" stroke-opacity="0" />
  <path d="M-163.483627319336,-11.1851940155029 C-163.483627319336,1.86252975463867 -180.105056762695,12.4398040771484 -200.608612060547,12.4398078918457 C-221.112182617188,12.439811706543 -237.733612060547,1.86254119873047 -237.733612060547,-11.185188293457 C-237.733612060547,-11.185188293457 -237.733612060547,-11.185188293457 -237.733612060547,-11.185188293457 L-237.733612060547,-11.1851711273193 C-237.733642578125,-24.2328968048096 -221.112213134766,-34.8101806640625 -200.608657836914,-34.810188293457 C-180.105087280273,-34.8101997375488 -163.483642578125,-24.2329330444336 -163.483627319336,-11.185188293457 C-163.483627319336,-11.185188293457 -163.483627319336,-11.185188293457 -163.483627319336,-11.185188293457 " stroke="none" fill="#83CC7C" fill-rule="evenodd" stroke-width="0" fill-opacity="1" />
  <text x="5.40602254867554" y="37.236442565918" dx="0" dy="0" font-family="Arial" font-size="9.74999970942737pt" fill="#000000" style="text-anchor:start" transform="matrix(0.750000 0.000000 0.000000 0.750000 -237.733612060547 -34.810188293457)">Selected CSV</text>
  <path d="M-163.483627319336,-11.1851940155029 C-163.483627319336,1.86252975463867 -180.105056762695,12.4398040771484 -200.608612060547,12.4398078918457 C-221.112182617188,12.439811706543 -237.733612060547,1.86254119873047 -237.733612060547,-11.185188293457 C-237.733612060547,-11.185188293457 -237.733612060547,-11.185188293457 -237.733612060547,-11.185188293457 L-237.733612060547,-11.1851711273193 C-237.733642578125,-24.2328968048096 -221.112213134766,-34.8101806640625 -200.608657836914,-34.810188293457 C-180.105087280273,-34.8101997375488 -163.483642578125,-24.2329330444336 -163.483627319336,-11.185188293457 C-163.483627319336,-11.185188293457 -163.483627319336,-11.185188293457 -163.483627319336,-11.185188293457 " stroke="none" fill="none" stroke-width="0.75" stroke-opacity="0" />
  <path d="M-161.514877319336,-76.9976959228516 C-161.514877319336,-67.2119064331055 -179.01774597168,-59.2789459228516 -200.608612060547,-59.2789421081543 C-222.199478149414,-59.278938293457 -239.702362060547,-67.2118911743164 -239.702362060547,-76.997688293457 C-239.702362060547,-76.997688293457 -239.702362060547,-76.997688293457 -239.702362060547,-76.997688293457 L-239.702377319336,-76.9976806640625 C-239.702392578125,-86.7834701538086 -222.19953918457,-94.716438293457 -200.608657836914,-94.716438293457 C-179.017776489258,-94.7164459228516 -161.514892578125,-86.7835006713867 -161.514877319336,-76.997688293457 C-161.514877319336,-76.997688293457 -161.514877319336,-76.997688293457 -161.514877319336,-76.997688293457 " stroke="none" fill="#82CAED" fill-rule="evenodd" stroke-width="0" fill-opacity="1" />
  <text x="30.8018569946289" y="29.3614444732666" dx="0" dy="0" font-family="Arial" font-size="9.74999970942737pt" fill="#000000" style="text-anchor:start" transform="matrix(0.750000 0.000000 0.000000 0.750000 -239.702362060547 -94.716438293457)">Name</text>
  <path d="M-161.514877319336,-76.9976959228516 C-161.514877319336,-67.2119064331055 -179.01774597168,-59.2789459228516 -200.608612060547,-59.2789421081543 C-222.199478149414,-59.278938293457 -239.702362060547,-67.2118911743164 -239.702362060547,-76.997688293457 C-239.702362060547,-76.997688293457 -239.702362060547,-76.997688293457 -239.702362060547,-76.997688293457 L-239.702377319336,-76.9976806640625 C-239.702392578125,-86.7834701538086 -222.19953918457,-94.716438293457 -200.608657836914,-94.716438293457 C-179.017776489258,-94.7164459228516 -161.514892578125,-86.7835006713867 -161.514877319336,-76.997688293457 C-161.514877319336,-76.997688293457 -161.514877319336,-76.997688293457 -161.514877319336,-76.997688293457 " stroke="none" fill="none" stroke-width="0.75" stroke-opacity="0" />
  <path d="M-136.982803344727,33.4703674316406 L-79.7406845092773,33.4703674316406 L-79.7406997680664,33.4703674316406 C-75.0441055297852,33.4703598022461 -71.2367553710938,37.2776947021484 -71.2367477416992,41.9743003845215 C-71.2367477416992,41.9743003845215 -71.2367477416992,41.9743041992188 -71.2367477416992,41.9743041992188 L-71.2367401123047,41.9743041992188 L-71.2367401123047,72.2164306640625 L-71.2367477416992,72.216423034668 C-71.2367477416992,76.9130172729492 -75.0440902709961,80.7203598022461 -79.7406845092773,80.7203598022461 L-79.7406845092773,80.7203674316406 L-136.982803344727,80.7203674316406 L-136.982803344727,80.7203598022461 C-141.679397583008,80.7203674316406 -145.486740112305,76.9130249023438 -145.486740112305,72.2164306640625 L-145.486740112305,41.9743041992188 L-145.486755371094,41.974308013916 C-145.486755371094,37.2777137756348 -141.679412841797,33.4703674316406 -136.982818603516,33.4703636169434 " stroke="none" fill="#F2E279" fill-rule="evenodd" stroke-width="0" fill-opacity="1" />
  <text x="2.88185548782349" y="37.236442565918" dx="0" dy="0" font-family="Arial" font-size="9.74999970942737pt" fill="#000000" style="text-anchor:start" transform="matrix(0.750000 0.000000 0.000000 0.750000 -145.486740112305 33.4703674316406)">Copy Features</text>
  <path d="M-136.982803344727,33.4703674316406 L-79.7406845092773,33.4703674316406 L-79.7406997680664,33.4703674316406 C-75.0441055297852,33.4703598022461 -71.2367553710938,37.2776947021484 -71.2367477416992,41.9743003845215 C-71.2367477416992,41.9743003845215 -71.2367477416992,41.9743041992188 -71.2367477416992,41.9743041992188 L-71.2367401123047,41.9743041992188 L-71.2367401123047,72.2164306640625 L-71.2367477416992,72.216423034668 C-71.2367477416992,76.9130172729492 -75.0440902709961,80.7203598022461 -79.7406845092773,80.7203598022461 L-79.7406845092773,80.7203674316406 L-136.982803344727,80.7203674316406 L-136.982803344727,80.7203598022461 C-141.679397583008,80.7203674316406 -145.486740112305,76.9130249023438 -145.486740112305,72.2164306640625 L-145.486740112305,41.9743041992188 L-145.486755371094,41.974308013916 C-145.486755371094,37.2777137756348 -141.679412841797,33.4703674316406 -136.982818603516,33.4703636169434 " stroke="none" fill="none" stroke-width="0.75" stroke-opacity="0" />
  <path d="M22.0908508300781,55.9940490722656 C22.0908432006836,69.0417709350586 5.46942520141602,79.6190490722656 -15.0341300964355,79.6190490722656 C-35.5377006530762,79.6190567016602 -52.1591377258301,69.0417861938477 -52.1591415405273,55.9940567016602 C-52.1591415405273,55.9940567016602 -52.1591415405273,55.9940567016602 -52.1591415405273,55.9940567016602 L-52.1591415405273,55.9940719604492 C-52.1591644287109,42.946346282959 -35.5377426147461,32.3690643310547 -15.0341758728027,32.3690567016602 C5.46939468383789,32.3690452575684 22.0908355712891,42.9463119506836 22.0908508300781,55.9940567016602 C22.0908508300781,55.9940567016602 22.0908508300781,55.9940567016602 22.0908508300781,55.9940567016602 " stroke="none" fill="#83CC7C" fill-rule="evenodd" stroke-width="0" fill-opacity="1" />
  <text x="5.77668905258179" y="29.7614459991455" dx="0" dy="0" font-family="Arial" font-size="9.74999970942737pt" fill="#000000" style="text-anchor:start" transform="matrix(0.750000 0.000000 0.000000 0.750000 -52.1591415405273 32.3690567016602)">Feature Class </text>
  <text x="15.5278549194336" y="44.7114448547363" dx="0" dy="0" font-family="Arial" font-size="9.74999970942737pt" fill="#000000" style="text-anchor:start" transform="matrix(0.750000 0.000000 0.000000 0.750000 -52.1591415405273 32.3690567016602)">from Points</text>
  <path d="M22.0908508300781,55.9940490722656 C22.0908432006836,69.0417709350586 5.46942520141602,79.6190490722656 -15.0341300964355,79.6190490722656 C-35.5377006530762,79.6190567016602 -52.1591377258301,69.0417861938477 -52.1591415405273,55.9940567016602 C-52.1591415405273,55.9940567016602 -52.1591415405273,55.9940567016602 -52.1591415405273,55.9940567016602 L-52.1591415405273,55.9940719604492 C-52.1591644287109,42.946346282959 -35.5377426147461,32.3690643310547 -15.0341758728027,32.3690567016602 C5.46939468383789,32.3690452575684 22.0908355712891,42.9463119506836 22.0908508300781,55.9940567016602 C22.0908508300781,55.9940567016602 22.0908508300781,55.9940567016602 22.0908508300781,55.9940567016602 " stroke="none" fill="none" stroke-width="0.75" stroke-opacity="0" />
  <path d="M-354.171142578125,-43.8101959228516 C-354.171142578125,-30.7624702453613 -370.792572021484,-20.1851959228516 -391.296112060547,-20.1851921081543 C-411.799682617188,-20.185188293457 -428.421112060547,-30.7624588012695 -428.421112060547,-43.810188293457 C-428.421112060547,-43.810188293457 -428.421112060547,-43.810188293457 -428.421112060547,-43.810188293457 L-428.421112060547,-43.810173034668 C-428.421142578125,-56.8578987121582 -411.799713134766,-67.4351806640625 -391.296173095703,-67.435188293457 C-370.792602539063,-67.4352035522461 -354.171142578125,-56.8579330444336 -354.171142578125,-43.810188293457 C-354.171142578125,-43.810188293457 -354.171142578125,-43.810188293457 -354.171142578125,-43.810188293457 " stroke="none" fill="#70AECC" fill-rule="evenodd" stroke-width="0" fill-opacity="1" />
  <text x="13.7285223007202" y="37.236442565918" dx="0" dy="0" font-family="Arial" font-size="9.74999970942737pt" fill="#000000" style="text-anchor:start" transform="matrix(0.750000 0.000000 0.000000 0.750000 -428.421112060547 -67.435188293457)">CSV</text>
  <text x="42.9836883544922" y="37.236442565918" dx="0" dy="0" font-family="Arial" font-size="9.74999970942737pt" fill="#000000" style="text-anchor:start" transform="matrix(0.750000 0.000000 0.000000 0.750000 -428.421112060547 -67.435188293457)">-</text>
  <text x="47.6711883544922" y="37.236442565918" dx="0" dy="0" font-family="Arial" font-size="9.74999970942737pt" fill="#000000" style="text-anchor:start" transform="matrix(0.750000 0.000000 0.000000 0.750000 -428.421112060547 -67.435188293457)">folder</text>
  <path d="M-354.171142578125,-43.8101959228516 C-354.171142578125,-30.7624702453613 -370.792572021484,-20.1851959228516 -391.296112060547,-20.1851921081543 C-411.799682617188,-20.185188293457 -428.421112060547,-30.7624588012695 -428.421112060547,-43.810188293457 C-428.421112060547,-43.810188293457 -428.421112060547,-43.810188293457 -428.421112060547,-43.810188293457 L-428.421112060547,-43.810173034668 C-428.421142578125,-56.8578987121582 -411.799713134766,-67.4351806640625 -391.296173095703,-67.435188293457 C-370.792602539063,-67.4352035522461 -354.171142578125,-56.8579330444336 -354.171142578125,-43.810188293457 C-354.171142578125,-43.810188293457 -354.171142578125,-43.810188293457 -354.171142578125,-43.810188293457 " stroke="none" fill="none" stroke-width="0.75" stroke-opacity="0" />
  <path d="M-139.785339355469,170.85090637207 L-82.5432205200195,170.85090637207 L-82.5432357788086,170.85090637207 C-77.8466415405273,170.850891113281 -74.0392913818359,174.658233642578 -74.0392837524414,179.354827880859 C-74.0392837524414,179.354827880859 -74.0392837524414,179.354843139648 -74.0392837524414,179.354843139648 L-74.0392761230469,179.354843139648 L-74.0392761230469,209.596969604492 L-74.0392837524414,209.596954345703 C-74.0392837524414,214.293548583984 -77.8466262817383,218.100891113281 -82.5432205200195,218.100891113281 L-82.5432205200195,218.10090637207 L-139.785339355469,218.10090637207 L-139.785339355469,218.100891113281 C-144.48193359375,218.10090637207 -148.289276123047,214.293563842773 -148.289276123047,209.596969604492 L-148.289276123047,179.354843139648 L-148.289291381836,179.354843139648 C-148.289291381836,174.658248901367 -144.481948852539,170.85090637207 -139.785354614258,170.850891113281 " stroke="none" fill="#F2E279" fill-rule="evenodd" stroke-width="0" fill-opacity="1" />
  <text x="35.5395202636719" y="36.7967185974121" dx="0" dy="0" font-family="Arial" font-size="8.99999973177911pt" fill="#000000" style="text-anchor:start" transform="matrix(0.750000 0.000000 0.000000 0.750000 -148.289276123047 170.85090637207)">Clip</text>
  <path d="M-139.785339355469,170.85090637207 L-82.5432205200195,170.85090637207 L-82.5432357788086,170.85090637207 C-77.8466415405273,170.850891113281 -74.0392913818359,174.658233642578 -74.0392837524414,179.354827880859 C-74.0392837524414,179.354827880859 -74.0392837524414,179.354843139648 -74.0392837524414,179.354843139648 L-74.0392761230469,179.354843139648 L-74.0392761230469,209.596969604492 L-74.0392837524414,209.596954345703 C-74.0392837524414,214.293548583984 -77.8466262817383,218.100891113281 -82.5432205200195,218.100891113281 L-82.5432205200195,218.10090637207 L-139.785339355469,218.10090637207 L-139.785339355469,218.100891113281 C-144.48193359375,218.10090637207 -148.289276123047,214.293563842773 -148.289276123047,209.596969604492 L-148.289276123047,179.354843139648 L-148.289291381836,179.354843139648 C-148.289291381836,174.658248901367 -144.481948852539,170.85090637207 -139.785354614258,170.850891113281 " stroke="none" fill="none" stroke-width="0.75" stroke-opacity="0" />
  <path d="M25.0360336303711,195.577178955078 C25.0360260009766,208.624908447266 8.41460800170898,219.202178955078 -12.0889472961426,219.202178955078 C-32.5925178527832,219.202194213867 -49.2139549255371,208.624923706055 -49.2139587402344,195.577194213867 C-49.2139587402344,195.577194213867 -49.2139587402344,195.577194213867 -49.2139587402344,195.577194213867 L-49.2139587402344,195.577209472656 C-49.213981628418,182.529479980469 -32.5925598144531,171.952194213867 -12.0889930725098,171.952194213867 C8.41457748413086,171.952178955078 25.036018371582,182.529449462891 25.0360336303711,195.577194213867 C25.0360336303711,195.577194213867 25.0360336303711,195.577194213867 25.0360336303711,195.577194213867 " stroke="none" fill="#83CC7C" fill-rule="evenodd" stroke-width="0" fill-opacity="1" />
  <text x="20.8595237731934" y="22.9967193603516" dx="0" dy="0" font-family="Arial" font-size="8.99999973177911pt" fill="#000000" style="text-anchor:start" transform="matrix(0.750000 0.000000 0.000000 0.750000 -49.2139587402344 171.952194213867)">Projected </text>
  <text x="9.19552230834961" y="36.7967185974121" dx="0" dy="0" font-family="Arial" font-size="8.99999973177911pt" fill="#000000" style="text-anchor:start" transform="matrix(0.750000 0.000000 0.000000 0.750000 -49.2139587402344 171.952194213867)">Feature Class </text>
  <text x="25.5295238494873" y="50.5967178344727" dx="0" dy="0" font-family="Arial" font-size="8.99999973177911pt" fill="#000000" style="text-anchor:start" transform="matrix(0.750000 0.000000 0.000000 0.750000 -49.2139587402344 171.952194213867)">Clipped</text>
  <path d="M25.0360336303711,195.577178955078 C25.0360260009766,208.624908447266 8.41460800170898,219.202178955078 -12.0889472961426,219.202178955078 C-32.5925178527832,219.202194213867 -49.2139549255371,208.624923706055 -49.2139587402344,195.577194213867 C-49.2139587402344,195.577194213867 -49.2139587402344,195.577194213867 -49.2139587402344,195.577194213867 L-49.2139587402344,195.577209472656 C-49.213981628418,182.529479980469 -32.5925598144531,171.952194213867 -12.0889930725098,171.952194213867 C8.41457748413086,171.952178955078 25.036018371582,182.529449462891 25.0360336303711,195.577194213867 C25.0360336303711,195.577194213867 25.0360336303711,195.577194213867 25.0360336303711,195.577194213867 " stroke="none" fill="none" stroke-width="0.75" stroke-opacity="0" />
  <path d="M-194.039321899414,194.475891113281 C-194.039321899414,207.523620605469 -210.660751342773,218.100891113281 -231.164306640625,218.100891113281 C-251.667877197266,218.10090637207 -268.289306640625,207.523635864258 -268.289306640625,194.47590637207 C-268.289306640625,194.47590637207 -268.289306640625,194.47590637207 -268.289306640625,194.47590637207 L-268.289306640625,194.475921630859 C-268.289337158203,181.428192138672 -251.667907714844,170.85090637207 -231.164352416992,170.85090637207 C-210.660781860352,170.850891113281 -194.039337158203,181.428161621094 -194.039321899414,194.47590637207 C-194.039321899414,194.47590637207 -194.039321899414,194.47590637207 -194.039321899414,194.47590637207 " stroke="none" fill="#70AECC" fill-rule="evenodd" stroke-width="0" fill-opacity="1" />
  <text x="5.18952226638794" y="29.8967189788818" dx="0" dy="0" font-family="Arial" font-size="8.99999973177911pt" fill="#000000" style="text-anchor:start" transform="matrix(0.750000 0.000000 0.000000 0.750000 -268.289306640625 170.85090637207)">Analysis Extent </text>
  <text x="31.8655223846436" y="43.6967163085938" dx="0" dy="0" font-family="Arial" font-size="8.99999973177911pt" fill="#000000" style="text-anchor:start" transform="matrix(0.750000 0.000000 0.000000 0.750000 -268.289306640625 170.85090637207)">Layer</text>
  <path d="M-194.039321899414,194.475891113281 C-194.039321899414,207.523620605469 -210.660751342773,218.100891113281 -231.164306640625,218.100891113281 C-251.667877197266,218.10090637207 -268.289306640625,207.523635864258 -268.289306640625,194.47590637207 C-268.289306640625,194.47590637207 -268.289306640625,194.47590637207 -268.289306640625,194.47590637207 L-268.289306640625,194.475921630859 C-268.289337158203,181.428192138672 -251.667907714844,170.85090637207 -231.164352416992,170.85090637207 C-210.660781860352,170.850891113281 -194.039337158203,181.428161621094 -194.039321899414,194.47590637207 C-194.039321899414,194.47590637207 -194.039321899414,194.47590637207 -194.039321899414,194.47590637207 " stroke="none" fill="none" stroke-width="0.75" stroke-opacity="0" />
  <path d="M-78.8581008911133,-79.0520858764648 C-78.8581008911133,-69.2662963867188 -91.3241729736328,-61.3333358764648 -106.701835632324,-61.3333320617676 C-122.079513549805,-61.3333282470703 -134.545593261719,-69.2662811279297 -134.545593261719,-79.0520782470703 C-134.545593261719,-79.0520782470703 -134.545593261719,-79.0520782470703 -134.545593261719,-79.0520782470703 L-134.545608520508,-79.0520706176758 C-134.545608520508,-88.8378601074219 -122.079544067383,-96.7708282470703 -106.701866149902,-96.7708282470703 C-91.3241958618164,-96.7708358764648 -78.8581161499023,-88.837890625 -78.8581008911133,-79.0520782470703 C-78.8581008911133,-79.0520782470703 -78.8581008911133,-79.0520782470703 -78.8581008911133,-79.0520782470703 " stroke="none" fill="#52C0CC" fill-rule="evenodd" stroke-width="0" fill-opacity="1" />
  <text x="15.1595220565796" y="28.9217185974121" dx="0" dy="0" font-family="Arial" font-size="8.99999973177911pt" fill="#000000" style="text-anchor:start" transform="matrix(0.750000 0.000000 0.000000 0.750000 -134.545593261719 -96.7708282470703)">X Field</text>
  <path d="M-78.8581008911133,-79.0520858764648 C-78.8581008911133,-69.2662963867188 -91.3241729736328,-61.3333358764648 -106.701835632324,-61.3333320617676 C-122.079513549805,-61.3333282470703 -134.545593261719,-69.2662811279297 -134.545593261719,-79.0520782470703 C-134.545593261719,-79.0520782470703 -134.545593261719,-79.0520782470703 -134.545593261719,-79.0520782470703 L-134.545608520508,-79.0520706176758 C-134.545608520508,-88.8378601074219 -122.079544067383,-96.7708282470703 -106.701866149902,-96.7708282470703 C-91.3241958618164,-96.7708358764648 -78.8581161499023,-88.837890625 -78.8581008911133,-79.0520782470703 C-78.8581008911133,-79.0520782470703 -78.8581008911133,-79.0520782470703 -78.8581008911133,-79.0520782470703 " stroke="none" fill="none" stroke-width="0.75" stroke-opacity="0" />
  <path d="M-1.40730285644531,-77.7612457275391 C-1.40730285644531,-67.975456237793 -13.8733711242676,-60.0424957275391 -29.2510375976563,-60.0424919128418 C-44.6287155151367,-60.0424880981445 -57.0947914123535,-67.9754409790039 -57.0947952270508,-77.7612380981445 C-57.0947952270508,-77.7612380981445 -57.0947952270508,-77.7612380981445 -57.0947952270508,-77.7612380981445 L-57.094799041748,-77.76123046875 C-57.0948104858398,-87.5470199584961 -44.6287460327148,-95.4799880981445 -29.2510681152344,-95.4799880981445 C-13.8733940124512,-95.4799957275391 -1.40731430053711,-87.5470504760742 -1.40730285644531,-77.7612380981445 C-1.40730285644531,-77.7612380981445 -1.40730285644531,-77.7612380981445 -1.40730285644531,-77.7612380981445 " stroke="none" fill="#52C0CC" fill-rule="evenodd" stroke-width="0" fill-opacity="1" />
  <text x="15.3741884231567" y="28.9217185974121" dx="0" dy="0" font-family="Arial" font-size="8.99999973177911pt" fill="#000000" style="text-anchor:start" transform="matrix(0.750000 0.000000 0.000000 0.750000 -57.0947952270508 -95.4799880981445)">Y Field</text>
  <path d="M-1.40730285644531,-77.7612457275391 C-1.40730285644531,-67.975456237793 -13.8733711242676,-60.0424957275391 -29.2510375976563,-60.0424919128418 C-44.6287155151367,-60.0424880981445 -57.0947914123535,-67.9754409790039 -57.0947952270508,-77.7612380981445 C-57.0947952270508,-77.7612380981445 -57.0947952270508,-77.7612380981445 -57.0947952270508,-77.7612380981445 L-57.094799041748,-77.76123046875 C-57.0948104858398,-87.5470199584961 -44.6287460327148,-95.4799880981445 -29.2510681152344,-95.4799880981445 C-13.8733940124512,-95.4799957275391 -1.40731430053711,-87.5470504760742 -1.40730285644531,-77.7612380981445 C-1.40730285644531,-77.7612380981445 -1.40730285644531,-77.7612380981445 -1.40730285644531,-77.7612380981445 " stroke="none" fill="none" stroke-width="0.75" stroke-opacity="0" />
  <path d="M-138.642181396484,241.830688476563 L-81.2500610351563,241.830688476563 L-81.2500762939453,241.830688476563 C-76.5534896850586,241.830673217773 -72.7461318969727,245.63801574707 -72.7461318969727,250.334609985352 C-72.7461318969727,250.334609985352 -72.7461318969727,250.334625244141 -72.7461318969727,250.334625244141 L-72.7461242675781,250.334625244141 L-72.7461242675781,280.726745605469 L-72.7461318969727,280.726745605469 C-72.7461318969727,285.42333984375 -76.553466796875,289.230682373047 -81.2500610351563,289.230682373047 L-81.2500610351563,289.230682373047 L-138.642181396484,289.230682373047 L-138.642181396484,289.230682373047 C-143.338775634766,289.230682373047 -147.146118164063,285.42333984375 -147.146118164063,280.726745605469 L-147.146118164063,250.334625244141 L-147.146133422852,250.334625244141 C-147.146133422852,245.638031005859 -143.338790893555,241.830688476563 -138.642196655273,241.830673217773 " stroke="none" fill="#F2E279" fill-rule="evenodd" stroke-width="0" fill-opacity="1" />
  <text x="17.9528560638428" y="29.9967193603516" dx="0" dy="0" font-family="Arial" font-size="8.99999973177911pt" fill="#000000" style="text-anchor:start" transform="matrix(0.750000 0.000000 0.000000 0.750000 -147.146118164063 241.830688476563)">Polygon to </text>
  <text x="28.3028564453125" y="43.7967185974121" dx="0" dy="0" font-family="Arial" font-size="8.99999973177911pt" fill="#000000" style="text-anchor:start" transform="matrix(0.750000 0.000000 0.000000 0.750000 -147.146118164063 241.830688476563)">Raster</text>
  <path d="M-138.642181396484,241.830688476563 L-81.2500610351563,241.830688476563 L-81.2500762939453,241.830688476563 C-76.5534896850586,241.830673217773 -72.7461318969727,245.63801574707 -72.7461318969727,250.334609985352 C-72.7461318969727,250.334609985352 -72.7461318969727,250.334625244141 -72.7461318969727,250.334625244141 L-72.7461242675781,250.334625244141 L-72.7461242675781,280.726745605469 L-72.7461318969727,280.726745605469 C-72.7461318969727,285.42333984375 -76.553466796875,289.230682373047 -81.2500610351563,289.230682373047 L-81.2500610351563,289.230682373047 L-138.642181396484,289.230682373047 L-138.642181396484,289.230682373047 C-143.338775634766,289.230682373047 -147.146118164063,285.42333984375 -147.146118164063,280.726745605469 L-147.146118164063,250.334625244141 L-147.146133422852,250.334625244141 C-147.146133422852,245.638031005859 -143.338790893555,241.830688476563 -138.642196655273,241.830673217773 " stroke="none" fill="none" stroke-width="0.75" stroke-opacity="0" />
  <path d="M26.9663696289063,266.468170166016 C26.9663696289063,279.557312011719 10.3113632202148,290.168182373047 -10.2336044311523,290.168182373047 C-30.7785892486572,290.168182373047 -47.4336051940918,279.557342529297 -47.4336204528809,266.468200683594 L-47.4336242675781,266.468200683594 C-47.4336395263672,253.379043579102 -30.7786426544189,242.768188476563 -10.2336540222168,242.768188476563 C10.311336517334,242.768173217773 26.9663467407227,253.379013061523 26.9663696289063,266.468170166016 C26.9663696289063,266.468170166016 26.9663696289063,266.468170166016 26.9663696289063,266.468170166016 " stroke="none" fill="#83CC7C" fill-rule="evenodd" stroke-width="0" fill-opacity="1" />
  <text x="13.2928552627563" y="36.8967208862305" dx="0" dy="0" font-family="Arial" font-size="8.99999973177911pt" fill="#000000" style="text-anchor:start" transform="matrix(0.750000 0.000000 0.000000 0.750000 -47.4336166381836 242.768188476563)">Point Raster</text>
  <path d="M26.9663696289063,266.468170166016 C26.9663696289063,279.557312011719 10.3113632202148,290.168182373047 -10.2336044311523,290.168182373047 C-30.7785892486572,290.168182373047 -47.4336051940918,279.557342529297 -47.4336204528809,266.468200683594 L-47.4336242675781,266.468200683594 C-47.4336395263672,253.379043579102 -30.7786426544189,242.768188476563 -10.2336540222168,242.768188476563 C10.311336517334,242.768173217773 26.9663467407227,253.379013061523 26.9663696289063,266.468170166016 C26.9663696289063,266.468170166016 26.9663696289063,266.468170166016 26.9663696289063,266.468170166016 " stroke="none" fill="none" stroke-width="0.75" stroke-opacity="0" />
  <path d="M193.006378173828,169.56494140625 L250.248489379883,169.56494140625 L250.248474121094,169.56494140625 C254.945068359375,169.564926147461 258.752410888672,173.372268676758 258.752410888672,178.068862915039 C258.752410888672,178.068862915039 258.752410888672,178.068878173828 258.752410888672,178.068878173828 L258.75244140625,178.068878173828 L258.75244140625,208.311004638672 L258.752410888672,208.310989379883 C258.752410888672,213.007583618164 254.945083618164,216.814926147461 250.248489379883,216.814926147461 L250.248489379883,216.81494140625 L193.006378173828,216.81494140625 L193.006378173828,216.814926147461 C188.309783935547,216.81494140625 184.50244140625,213.007598876953 184.50244140625,208.311004638672 L184.50244140625,178.068878173828 L184.502426147461,178.068878173828 C184.502426147461,173.372283935547 188.309768676758,169.56494140625 193.006362915039,169.564926147461 " stroke="none" fill="#F2E279" fill-rule="evenodd" stroke-width="0" fill-opacity="1" />
  <text x="26.368522644043" y="29.7614459991455" dx="0" dy="0" font-family="Arial" font-size="9.74999970942737pt" fill="#000000" style="text-anchor:start" transform="matrix(0.750000 0.000000 0.000000 0.750000 184.50244140625 169.56494140625)">Raster </text>
  <text x="16.2551898956299" y="44.7114448547363" dx="0" dy="0" font-family="Arial" font-size="9.74999970942737pt" fill="#000000" style="text-anchor:start" transform="matrix(0.750000 0.000000 0.000000 0.750000 184.50244140625 169.56494140625)">Calculator</text>
  <path d="M193.006378173828,169.56494140625 L250.248489379883,169.56494140625 L250.248474121094,169.56494140625 C254.945068359375,169.564926147461 258.752410888672,173.372268676758 258.752410888672,178.068862915039 C258.752410888672,178.068862915039 258.752410888672,178.068878173828 258.752410888672,178.068878173828 L258.75244140625,178.068878173828 L258.75244140625,208.311004638672 L258.752410888672,208.310989379883 C258.752410888672,213.007583618164 254.945083618164,216.814926147461 250.248489379883,216.814926147461 L250.248489379883,216.81494140625 L193.006378173828,216.81494140625 L193.006378173828,216.814926147461 C188.309783935547,216.81494140625 184.50244140625,213.007598876953 184.50244140625,208.311004638672 L184.50244140625,178.068878173828 L184.502426147461,178.068878173828 C184.502426147461,173.372283935547 188.309768676758,169.56494140625 193.006362915039,169.564926147461 " stroke="none" fill="none" stroke-width="0.75" stroke-opacity="0" />
  <path d="M368.675109863281,194.048202514648 C368.675109863281,207.095932006836 352.053680419922,217.673202514648 331.550140380859,217.673202514648 C311.046569824219,217.673217773438 294.425140380859,207.095947265625 294.425140380859,194.048217773438 C294.425140380859,194.048217773438 294.425140380859,194.048217773438 294.425140380859,194.048217773438 L294.425140380859,194.048233032227 C294.425109863281,181.000503540039 311.046539306641,170.423217773438 331.550079345703,170.423217773438 C352.053649902344,170.423202514648 368.675109863281,181.000473022461 368.675109863281,194.048217773438 C368.675109863281,194.048217773438 368.675109863281,194.048217773438 368.675109863281,194.048217773438 " stroke="none" fill="#83CC7C" fill-rule="evenodd" stroke-width="0" fill-opacity="1" />
  <text x="16.8458557128906" y="29.7614459991455" dx="0" dy="0" font-family="Arial" font-size="9.74999970942737pt" fill="#000000" style="text-anchor:start" transform="matrix(0.750000 0.000000 0.000000 0.750000 294.425140380859 170.423217773438)">Weighted </text>
  <text x="18.4126892089844" y="44.7114448547363" dx="0" dy="0" font-family="Arial" font-size="9.74999970942737pt" fill="#000000" style="text-anchor:start" transform="matrix(0.750000 0.000000 0.000000 0.750000 294.425140380859 170.423217773438)">Exposure</text>
  <path d="M368.675109863281,194.048202514648 C368.675109863281,207.095932006836 352.053680419922,217.673202514648 331.550140380859,217.673202514648 C311.046569824219,217.673217773438 294.425140380859,207.095947265625 294.425140380859,194.048217773438 C294.425140380859,194.048217773438 294.425140380859,194.048217773438 294.425140380859,194.048217773438 L294.425140380859,194.048233032227 C294.425109863281,181.000503540039 311.046539306641,170.423217773438 331.550079345703,170.423217773438 C352.053649902344,170.423202514648 368.675109863281,181.000473022461 368.675109863281,194.048217773438 C368.675109863281,194.048217773438 368.675109863281,194.048217773438 368.675109863281,194.048217773438 " stroke="none" fill="none" stroke-width="0.75" stroke-opacity="0" />
  <path d="M303.882293701172,12.7896842956543 L361.124389648438,12.7896842956543 L361.124389648438,12.7896842956543 C365.820983886719,12.7896766662598 369.628326416016,16.5970115661621 369.628326416016,21.2936172485352 C369.628326416016,21.2936191558838 369.628326416016,21.2936210632324 369.628326416016,21.2936229705811 L369.628356933594,21.2936210632324 L369.628356933594,51.5357475280762 L369.628326416016,51.5357398986816 C369.628326416016,56.2323341369629 365.820983886719,60.0396766662598 361.124389648438,60.039680480957 L361.124389648438,60.0396842956543 L303.882293701172,60.0396842956543 L303.882293701172,60.039680480957 C299.185699462891,60.0396842956543 295.378356933594,56.2323417663574 295.378356933594,51.5357475280762 L295.378356933594,21.2936210632324 L295.378326416016,21.2936248779297 C295.378326416016,16.5970306396484 299.185668945313,12.7896871566772 303.882263183594,12.78968334198 " stroke="none" fill="#F2E279" fill-rule="evenodd" stroke-width="0" fill-opacity="1" />
  <text x="2.16335582733154" y="29.7614459991455" dx="0" dy="0" font-family="Arial" font-size="9.74999970942737pt" fill="#000000" style="text-anchor:start" transform="matrix(0.750000 0.000000 0.000000 0.750000 295.378356933594 12.7896842956543)">Zonal Statistics </text>
  <text x="22.5008563995361" y="44.7114448547363" dx="0" dy="0" font-family="Arial" font-size="9.74999970942737pt" fill="#000000" style="text-anchor:start" transform="matrix(0.750000 0.000000 0.000000 0.750000 295.378356933594 12.7896842956543)">as Table</text>
  <path d="M303.882293701172,12.7896842956543 L361.124389648438,12.7896842956543 L361.124389648438,12.7896842956543 C365.820983886719,12.7896766662598 369.628326416016,16.5970115661621 369.628326416016,21.2936172485352 C369.628326416016,21.2936191558838 369.628326416016,21.2936210632324 369.628326416016,21.2936229705811 L369.628356933594,21.2936210632324 L369.628356933594,51.5357475280762 L369.628326416016,51.5357398986816 C369.628326416016,56.2323341369629 365.820983886719,60.0396766662598 361.124389648438,60.039680480957 L361.124389648438,60.0396842956543 L303.882293701172,60.0396842956543 L303.882293701172,60.039680480957 C299.185699462891,60.0396842956543 295.378356933594,56.2323417663574 295.378356933594,51.5357475280762 L295.378356933594,21.2936210632324 L295.378326416016,21.2936248779297 C295.378326416016,16.5970306396484 299.185668945313,12.7896871566772 303.882263183594,12.78968334198 " stroke="none" fill="none" stroke-width="0.75" stroke-opacity="0" />
  <path d="M468.952667236328,36.9980392456055 C468.952667236328,50.0457649230957 452.331237792969,60.6230392456055 431.827697753906,60.6230430603027 C411.324127197266,60.623046875 394.702697753906,50.0457763671875 394.702697753906,36.998046875 C394.702697753906,36.998046875 394.702697753906,36.998046875 394.702697753906,36.998046875 L394.702697753906,36.9980621337891 C394.702667236328,23.9503383636475 411.324096679688,13.3730554580688 431.82763671875,13.373046875 C452.331207275391,13.3730363845825 468.952667236328,23.9503021240234 468.952667236328,36.998046875 C468.952667236328,36.998046875 468.952667236328,36.998046875 468.952667236328,36.998046875 " stroke="none" fill="#83CC7C" fill-rule="evenodd" stroke-width="0" fill-opacity="1" />
  <text x="1.18602228164673" y="37.236442565918" dx="0" dy="0" font-family="Arial" font-size="9.74999970942737pt" fill="#000000" style="text-anchor:start" transform="matrix(0.750000 0.000000 0.000000 0.750000 394.702697753906 13.373046875)">Exposure Table</text>
  <path d="M468.952667236328,36.9980392456055 C468.952667236328,50.0457649230957 452.331237792969,60.6230392456055 431.827697753906,60.6230430603027 C411.324127197266,60.623046875 394.702697753906,50.0457763671875 394.702697753906,36.998046875 C394.702697753906,36.998046875 394.702697753906,36.998046875 394.702697753906,36.998046875 L394.702697753906,36.9980621337891 C394.702667236328,23.9503383636475 411.324096679688,13.3730554580688 431.82763671875,13.373046875 C452.331207275391,13.3730363845825 468.952667236328,23.9503021240234 468.952667236328,36.998046875 C468.952667236328,36.998046875 468.952667236328,36.998046875 468.952667236328,36.998046875 " stroke="none" fill="none" stroke-width="0.75" stroke-opacity="0" />
  <path d="M77.56005859375,82.2229080200195 L134.802169799805,82.2229080200195 L134.802154541016,82.2229080200195 C139.498748779297,82.222900390625 143.306106567383,86.0302352905273 143.306106567383,90.7268371582031 C143.306106567383,90.7268371582031 143.306106567383,90.7268447875977 143.306106567383,90.7268447875977 L143.306121826172,90.7268447875977 L143.306121826172,120.968971252441 L143.306106567383,120.968963623047 C143.306106567383,125.665557861328 139.498764038086,129.472900390625 134.802169799805,129.472900390625 L134.802169799805,129.472900390625 L77.56005859375,129.472900390625 L77.56005859375,129.472900390625 C72.8634643554688,129.472900390625 69.0561218261719,125.665565490723 69.0561218261719,120.968971252441 L69.0561218261719,90.7268447875977 L69.0561141967773,90.7268447875977 C69.0561141967773,86.0302505493164 72.8634490966797,82.2229080200195 77.5600433349609,82.222900390625 " stroke="none" fill="#F2E279" fill-rule="evenodd" stroke-width="0" fill-opacity="1" />
  <text x="23.1126899719238" y="37.236442565918" dx="0" dy="0" font-family="Arial" font-size="9.74999970942737pt" fill="#000000" style="text-anchor:start" transform="matrix(0.750000 0.000000 0.000000 0.750000 69.0561218261719 82.2229080200195)">Set Null</text>
  <path d="M77.56005859375,82.2229080200195 L134.802169799805,82.2229080200195 L134.802154541016,82.2229080200195 C139.498748779297,82.222900390625 143.306106567383,86.0302352905273 143.306106567383,90.7268371582031 C143.306106567383,90.7268371582031 143.306106567383,90.7268447875977 143.306106567383,90.7268447875977 L143.306121826172,90.7268447875977 L143.306121826172,120.968971252441 L143.306106567383,120.968963623047 C143.306106567383,125.665557861328 139.498764038086,129.472900390625 134.802169799805,129.472900390625 L134.802169799805,129.472900390625 L77.56005859375,129.472900390625 L77.56005859375,129.472900390625 C72.8634643554688,129.472900390625 69.0561218261719,125.665565490723 69.0561218261719,120.968971252441 L69.0561218261719,90.7268447875977 L69.0561141967773,90.7268447875977 C69.0561141967773,86.0302505493164 72.8634490966797,82.2229080200195 77.5600433349609,82.222900390625 " stroke="none" fill="none" stroke-width="0.75" stroke-opacity="0" />
  <path d="M141.749984741211,191.440414428711 C141.749984741211,204.488143920898 125.128562927246,215.065414428711 104.625007629395,215.065414428711 C84.1214370727539,215.0654296875 67.5,204.488159179688 67.5,191.4404296875 C67.5,191.4404296875 67.5,191.4404296875 67.5,191.4404296875 L67.5,191.440444946289 C67.4999771118164,178.392715454102 84.1213989257813,167.8154296875 104.624961853027,167.8154296875 C125.128532409668,167.815414428711 141.749969482422,178.392684936523 141.749984741211,191.4404296875 C141.749984741211,191.4404296875 141.749984741211,191.4404296875 141.749984741211,191.4404296875 " stroke="none" fill="#83CC7C" fill-rule="evenodd" stroke-width="0" fill-opacity="1" />
  <text x="10.1060218811035" y="29.7614459991455" dx="0" dy="0" font-family="Arial" font-size="9.74999970942737pt" fill="#000000" style="text-anchor:start" transform="matrix(0.750000 0.000000 0.000000 0.750000 67.5 167.8154296875)">Point Raster </text>
  <text x="20.9551887512207" y="44.7114448547363" dx="0" dy="0" font-family="Arial" font-size="9.74999970942737pt" fill="#000000" style="text-anchor:start" transform="matrix(0.750000 0.000000 0.000000 0.750000 67.5 167.8154296875)">with Null</text>
  <path d="M141.749984741211,191.440414428711 C141.749984741211,204.488143920898 125.128562927246,215.065414428711 104.625007629395,215.065414428711 C84.1214370727539,215.0654296875 67.5,204.488159179688 67.5,191.4404296875 C67.5,191.4404296875 67.5,191.4404296875 67.5,191.4404296875 L67.5,191.440444946289 C67.4999771118164,178.392715454102 84.1213989257813,167.8154296875 104.624961853027,167.8154296875 C125.128532409668,167.815414428711 141.749969482422,178.392684936523 141.749984741211,191.4404296875 C141.749984741211,191.4404296875 141.749984741211,191.4404296875 141.749984741211,191.4404296875 " stroke="none" fill="none" stroke-width="0.75" stroke-opacity="0" />
  <path d="M693.42626953125,173.895904541016 L750.668395996094,173.895904541016 L750.668395996094,173.895904541016 C755.364990234375,173.895889282227 759.172302246094,177.703231811523 759.172302246094,182.399826049805 C759.172302246094,182.399826049805 759.172302246094,182.399841308594 759.172302246094,182.399841308594 L759.17236328125,182.399841308594 L759.17236328125,212.641967773438 L759.172302246094,212.641952514648 C759.172302246094,217.33854675293 755.364990234375,221.145889282227 750.668395996094,221.145889282227 L750.668395996094,221.145904541016 L693.42626953125,221.145904541016 L693.42626953125,221.145889282227 C688.729675292969,221.145904541016 684.92236328125,217.338562011719 684.92236328125,212.641967773438 L684.92236328125,182.399841308594 L684.922302246094,182.399841308594 C684.922302246094,177.703247070313 688.729675292969,173.895904541016 693.42626953125,173.895889282227 " stroke="none" fill="#F2E279" fill-rule="evenodd" stroke-width="0" fill-opacity="1" />
  <text x="23.4626903533936" y="37.236442565918" dx="0" dy="0" font-family="Arial" font-size="9.74999970942737pt" fill="#000000" style="text-anchor:start" transform="matrix(0.750000 0.000000 0.000000 0.750000 684.92236328125 173.895904541016)">Append</text>
  <path d="M693.42626953125,173.895904541016 L750.668395996094,173.895904541016 L750.668395996094,173.895904541016 C755.364990234375,173.895889282227 759.172302246094,177.703231811523 759.172302246094,182.399826049805 C759.172302246094,182.399826049805 759.172302246094,182.399841308594 759.172302246094,182.399841308594 L759.17236328125,182.399841308594 L759.17236328125,212.641967773438 L759.172302246094,212.641952514648 C759.172302246094,217.33854675293 755.364990234375,221.145889282227 750.668395996094,221.145889282227 L750.668395996094,221.145904541016 L693.42626953125,221.145904541016 L693.42626953125,221.145889282227 C688.729675292969,221.145904541016 684.92236328125,217.338562011719 684.92236328125,212.641967773438 L684.92236328125,182.399841308594 L684.922302246094,182.399841308594 C684.922302246094,177.703247070313 688.729675292969,173.895904541016 693.42626953125,173.895889282227 " stroke="none" fill="none" stroke-width="0.75" stroke-opacity="0" />
  <path d="M880.282409667969,197.82356262207 C880.282409667969,210.871292114258 863.661010742188,221.44856262207 843.157470703125,221.44856262207 C822.653869628906,221.448577880859 806.032470703125,210.871307373047 806.032470703125,197.823577880859 C806.032470703125,197.823577880859 806.032470703125,197.823577880859 806.032470703125,197.823577880859 L806.032470703125,197.823593139648 C806.032409667969,184.775863647461 822.653869628906,174.198577880859 843.157409667969,174.198577880859 C863.660949707031,174.19856262207 880.282409667969,184.775833129883 880.282409667969,197.823577880859 C880.282409667969,197.823577880859 880.282409667969,197.823577880859 880.282409667969,197.823577880859 " stroke="none" fill="#83CC7C" fill-rule="evenodd" stroke-width="0" fill-opacity="1" />
  <text x="11.9200220108032" y="29.7614459991455" dx="0" dy="0" font-family="Arial" font-size="9.74999970942737pt" fill="#000000" style="text-anchor:start" transform="matrix(0.750000 0.000000 0.000000 0.750000 806.032470703125 174.198577880859)">Final Result </text>
  <text x="31.4181900024414" y="44.7114448547363" dx="0" dy="0" font-family="Arial" font-size="9.74999970942737pt" fill="#000000" style="text-anchor:start" transform="matrix(0.750000 0.000000 0.000000 0.750000 806.032470703125 174.198577880859)">Table</text>
  <path d="M880.282409667969,197.82356262207 C880.282409667969,210.871292114258 863.661010742188,221.44856262207 843.157470703125,221.44856262207 C822.653869628906,221.448577880859 806.032470703125,210.871307373047 806.032470703125,197.823577880859 C806.032470703125,197.823577880859 806.032470703125,197.823577880859 806.032470703125,197.823577880859 L806.032470703125,197.823593139648 C806.032409667969,184.775863647461 822.653869628906,174.198577880859 843.157409667969,174.198577880859 C863.660949707031,174.19856262207 880.282409667969,184.775833129883 880.282409667969,197.823577880859 C880.282409667969,197.823577880859 880.282409667969,197.823577880859 880.282409667969,197.823577880859 " stroke="none" fill="none" stroke-width="0.75" stroke-opacity="0" />
  <path d="M501.796752929688,13.3645668029785 L559.038818359375,13.3645668029785 L559.038818359375,13.3645668029785 C563.735412597656,13.364559173584 567.542785644531,17.1718940734863 567.542785644531,21.8684997558594 C567.542785644531,21.868501663208 567.542785644531,21.8685035705566 567.542785644531,21.8685054779053 L567.542785644531,21.8685035705566 L567.542785644531,52.1106300354004 L567.542785644531,52.1106224060059 C567.542785644531,56.8072166442871 563.735412597656,60.614559173584 559.038818359375,60.6145629882813 L559.038818359375,60.6145668029785 L501.796752929688,60.6145668029785 L501.796752929688,60.6145629882813 C497.100158691406,60.6145668029785 493.292816162109,56.8072242736816 493.292816162109,52.1106300354004 L493.292816162109,21.8685035705566 L493.292785644531,21.8685073852539 C493.292785644531,17.1719131469727 497.100128173828,13.3645696640015 501.796722412109,13.3645658493042 " stroke="none" fill="#F2E279" fill-rule="evenodd" stroke-width="0" fill-opacity="1" />
  <text x="18.4126892089844" y="37.236442565918" dx="0" dy="0" font-family="Arial" font-size="9.74999970942737pt" fill="#000000" style="text-anchor:start" transform="matrix(0.750000 0.000000 0.000000 0.750000 493.292816162109 13.3645668029785)">Add Field</text>
  <path d="M501.796752929688,13.3645668029785 L559.038818359375,13.3645668029785 L559.038818359375,13.3645668029785 C563.735412597656,13.364559173584 567.542785644531,17.1718940734863 567.542785644531,21.8684997558594 C567.542785644531,21.868501663208 567.542785644531,21.8685035705566 567.542785644531,21.8685054779053 L567.542785644531,21.8685035705566 L567.542785644531,52.1106300354004 L567.542785644531,52.1106224060059 C567.542785644531,56.8072166442871 563.735412597656,60.614559173584 559.038818359375,60.6145629882813 L559.038818359375,60.6145668029785 L501.796752929688,60.6145668029785 L501.796752929688,60.6145629882813 C497.100158691406,60.6145668029785 493.292816162109,56.8072242736816 493.292816162109,52.1106300354004 L493.292816162109,21.8685035705566 L493.292785644531,21.8685073852539 C493.292785644531,17.1719131469727 497.100128173828,13.3645696640015 501.796722412109,13.3645658493042 " stroke="none" fill="none" stroke-width="0.75" stroke-opacity="0" />
  <path d="M663.730224609375,36.427059173584 C663.730224609375,49.4747848510742 647.108825683594,60.052059173584 626.605285644531,60.0520629882813 C606.101684570313,60.0520668029785 589.480285644531,49.474796295166 589.480285644531,36.4270668029785 C589.480285644531,36.4270668029785 589.480285644531,36.4270668029785 589.480285644531,36.4270668029785 L589.480285644531,36.4270820617676 C589.480224609375,23.379358291626 606.101684570313,12.8020753860474 626.605224609375,12.8020668029785 C647.108764648438,12.802056312561 663.730224609375,23.379322052002 663.730224609375,36.4270668029785 C663.730224609375,36.4270668029785 663.730224609375,36.4270668029785 663.730224609375,36.4270668029785 " stroke="none" fill="#83CC7C" fill-rule="evenodd" stroke-width="0" fill-opacity="1" />
  <text x="1.18602228164673" y="29.7614459991455" dx="0" dy="0" font-family="Arial" font-size="9.74999970942737pt" fill="#000000" style="text-anchor:start" transform="matrix(0.750000 0.000000 0.000000 0.750000 589.480285644531 12.8020668029785)">Exposure Table </text>
  <text x="9.75518894195557" y="44.7114448547363" dx="0" dy="0" font-family="Arial" font-size="9.74999970942737pt" fill="#000000" style="text-anchor:start" transform="matrix(0.750000 0.000000 0.000000 0.750000 589.480285644531 12.8020668029785)">with ID Field</text>
  <path d="M663.730224609375,36.427059173584 C663.730224609375,49.4747848510742 647.108825683594,60.052059173584 626.605285644531,60.0520629882813 C606.101684570313,60.0520668029785 589.480285644531,49.474796295166 589.480285644531,36.4270668029785 C589.480285644531,36.4270668029785 589.480285644531,36.4270668029785 589.480285644531,36.4270668029785 L589.480285644531,36.4270820617676 C589.480224609375,23.379358291626 606.101684570313,12.8020753860474 626.605224609375,12.8020668029785 C647.108764648438,12.802056312561 663.730224609375,23.379322052002 663.730224609375,36.4270668029785 C663.730224609375,36.4270668029785 663.730224609375,36.4270668029785 663.730224609375,36.4270668029785 " stroke="none" fill="none" stroke-width="0.75" stroke-opacity="0" />
  <path d="M693.609191894531,14.4895668029785 L750.851318359375,14.4895668029785 L750.851318359375,14.4895668029785 C755.547912597656,14.489559173584 759.355224609375,18.2968940734863 759.355224609375,22.9934997558594 C759.355224609375,22.993501663208 759.355224609375,22.9935035705566 759.355224609375,22.9935054779053 L759.355285644531,22.9935035705566 L759.355285644531,53.2356300354004 L759.355224609375,53.2356224060059 C759.355224609375,57.9322166442871 755.547912597656,61.739559173584 750.851318359375,61.7395629882813 L750.851318359375,61.7395668029785 L693.609191894531,61.7395668029785 L693.609191894531,61.7395629882813 C688.91259765625,61.7395668029785 685.105285644531,57.9322242736816 685.105285644531,53.2356300354004 L685.105285644531,22.9935035705566 L685.105224609375,22.9935073852539 C685.105224609375,18.2969131469727 688.91259765625,14.4895696640015 693.609191894531,14.4895658493042 " stroke="none" fill="#F2E279" fill-rule="evenodd" stroke-width="0" fill-opacity="1" />
  <text x="2.52518892288208" y="37.236442565918" dx="0" dy="0" font-family="Arial" font-size="9.74999970942737pt" fill="#000000" style="text-anchor:start" transform="matrix(0.750000 0.000000 0.000000 0.750000 685.105285644531 14.4895668029785)">Calculate Field</text>
  <path d="M693.609191894531,14.4895668029785 L750.851318359375,14.4895668029785 L750.851318359375,14.4895668029785 C755.547912597656,14.489559173584 759.355224609375,18.2968940734863 759.355224609375,22.9934997558594 C759.355224609375,22.993501663208 759.355224609375,22.9935035705566 759.355224609375,22.9935054779053 L759.355285644531,22.9935035705566 L759.355285644531,53.2356300354004 L759.355224609375,53.2356224060059 C759.355224609375,57.9322166442871 755.547912597656,61.739559173584 750.851318359375,61.7395629882813 L750.851318359375,61.7395668029785 L693.609191894531,61.7395668029785 L693.609191894531,61.7395629882813 C688.91259765625,61.7395668029785 685.105285644531,57.9322242736816 685.105285644531,53.2356300354004 L685.105285644531,22.9935035705566 L685.105224609375,22.9935073852539 C685.105224609375,18.2969131469727 688.91259765625,14.4895696640015 693.609191894531,14.4895658493042 " stroke="none" fill="none" stroke-width="0.75" stroke-opacity="0" />
  <path d="M758.416564941406,118.533279418945 C758.416564941406,131.580993652344 741.795166015625,142.158279418945 721.291625976563,142.158279418945 C700.788024902344,142.158279418945 684.166625976563,131.581008911133 684.166625976563,118.53328704834 C684.166625976563,118.53328704834 684.166625976563,118.53328704834 684.166625976563,118.53328704834 L684.166625976563,118.533302307129 C684.166564941406,105.485572814941 700.788024902344,94.9082946777344 721.291564941406,94.9082870483398 C741.795104980469,94.9082717895508 758.416564941406,105.485542297363 758.416564941406,118.53328704834 C758.416564941406,118.53328704834 758.416564941406,118.53328704834 758.416564941406,118.53328704834 " stroke="none" fill="#83CC7C" fill-rule="evenodd" stroke-width="0" fill-opacity="1" />
  <text x="1.18602228164673" y="29.7614459991455" dx="0" dy="0" font-family="Arial" font-size="9.74999970942737pt" fill="#000000" style="text-anchor:start" transform="matrix(0.750000 0.000000 0.000000 0.750000 684.166625976563 94.9082870483398)">Exposure Table </text>
  <text x="13.7285223007202" y="44.7114448547363" dx="0" dy="0" font-family="Arial" font-size="9.74999970942737pt" fill="#000000" style="text-anchor:start" transform="matrix(0.750000 0.000000 0.000000 0.750000 684.166625976563 94.9082870483398)">with PT_ID</text>
  <path d="M758.416564941406,118.533279418945 C758.416564941406,131.580993652344 741.795166015625,142.158279418945 721.291625976563,142.158279418945 C700.788024902344,142.158279418945 684.166625976563,131.581008911133 684.166625976563,118.53328704834 C684.166625976563,118.53328704834 684.166625976563,118.53328704834 684.166625976563,118.53328704834 L684.166625976563,118.533302307129 C684.166564941406,105.485572814941 700.788024902344,94.9082946777344 721.291564941406,94.9082870483398 C741.795104980469,94.9082717895508 758.416564941406,105.485542297363 758.416564941406,118.53328704834 C758.416564941406,118.53328704834 758.416564941406,118.53328704834 758.416564941406,118.53328704834 " stroke="none" fill="none" stroke-width="0.75" stroke-opacity="0" />
  <path d="M257.69287109375,104.883369445801 C257.69287109375,117.931091308594 241.07145690918,128.508361816406 220.567901611328,128.508361816406 C200.064331054688,128.508377075195 183.442901611328,117.931106567383 183.442901611328,104.883377075195 C183.442901611328,104.883377075195 183.442901611328,104.883377075195 183.442901611328,104.883377075195 L183.442901611328,104.883392333984 C183.44287109375,91.8356628417969 200.064300537109,81.2583847045898 220.567855834961,81.2583770751953 C241.071426391602,81.2583618164063 257.69287109375,91.8356323242188 257.69287109375,104.883377075195 C257.69287109375,104.883377075195 257.69287109375,104.883377075195 257.69287109375,104.883377075195 " stroke="none" fill="#70AECC" fill-rule="evenodd" stroke-width="0" fill-opacity="1" />
  <text x="4.1861891746521" y="36.7967185974121" dx="0" dy="0" font-family="Arial" font-size="8.99999973177911pt" fill="#000000" style="text-anchor:start" transform="matrix(0.750000 0.000000 0.000000 0.750000 183.442901611328 81.2583770751953)">Exposure Layer</text>
  <path d="M257.69287109375,104.883369445801 C257.69287109375,117.931091308594 241.07145690918,128.508361816406 220.567901611328,128.508361816406 C200.064331054688,128.508377075195 183.442901611328,117.931106567383 183.442901611328,104.883377075195 C183.442901611328,104.883377075195 183.442901611328,104.883377075195 183.442901611328,104.883377075195 L183.442901611328,104.883392333984 C183.44287109375,91.8356628417969 200.064300537109,81.2583847045898 220.567855834961,81.2583770751953 C241.071426391602,81.2583618164063 257.69287109375,91.8356323242188 257.69287109375,104.883377075195 C257.69287109375,104.883377075195 257.69287109375,104.883377075195 257.69287109375,104.883377075195 " stroke="none" fill="none" stroke-width="0.75" stroke-opacity="0" />
  <path d="M369.883361816406,-52.6250076293945 C369.883361816406,-39.5772819519043 353.261932373047,-29.0000076293945 332.758392333984,-29.0000038146973 C312.254821777344,-29 295.633392333984,-39.5772705078125 295.633392333984,-52.625 C295.633392333984,-52.625 295.633392333984,-52.625 295.633392333984,-52.625 L295.633392333984,-52.6249847412109 C295.633361816406,-65.6727142333984 312.254791259766,-76.2499923706055 332.758331298828,-76.25 C353.261901855469,-76.2500152587891 369.883361816406,-65.6727447509766 369.883361816406,-52.625 C369.883361816406,-52.625 369.883361816406,-52.625 369.883361816406,-52.625 " stroke="none" fill="#70AECC" fill-rule="evenodd" stroke-width="0" fill-opacity="1" />
  <text x="5.18952226638794" y="29.8967189788818" dx="0" dy="0" font-family="Arial" font-size="8.99999973177911pt" fill="#000000" style="text-anchor:start" transform="matrix(0.750000 0.000000 0.000000 0.750000 295.633392333984 -76.25)">Analysis Extent </text>
  <text x="20.522855758667" y="43.6967163085938" dx="0" dy="0" font-family="Arial" font-size="8.99999973177911pt" fill="#000000" style="text-anchor:start" transform="matrix(0.750000 0.000000 0.000000 0.750000 295.633392333984 -76.25)">Boundary</text>
  <path d="M369.883361816406,-52.6250076293945 C369.883361816406,-39.5772819519043 353.261932373047,-29.0000076293945 332.758392333984,-29.0000038146973 C312.254821777344,-29 295.633392333984,-39.5772705078125 295.633392333984,-52.625 C295.633392333984,-52.625 295.633392333984,-52.625 295.633392333984,-52.625 L295.633392333984,-52.6249847412109 C295.633361816406,-65.6727142333984 312.254791259766,-76.2499923706055 332.758331298828,-76.25 C353.261901855469,-76.2500152587891 369.883361816406,-65.6727447509766 369.883361816406,-52.625 C369.883361816406,-52.625 369.883361816406,-52.625 369.883361816406,-52.625 " stroke="none" fill="none" stroke-width="0.75" stroke-opacity="0" />
  <path d="M654.043029785156,198.647369384766 C654.043029785156,211.736526489258 637.388000488281,222.347381591797 616.843078613281,222.347381591797 C596.298034667969,222.347381591797 579.64306640625,211.736541748047 579.643005371094,198.647399902344 L579.643005371094,198.647399902344 C579.643005371094,185.558242797852 596.298034667969,174.947387695313 616.843017578125,174.947387695313 C637.388000488281,174.947372436523 654.043029785156,185.558212280273 654.043029785156,198.647384643555 C654.043029785156,198.647384643555 654.043029785156,198.647384643555 654.043029785156,198.647384643555 " stroke="none" fill="#70AECC" fill-rule="evenodd" stroke-width="0" fill-opacity="1" />
  <text x="13.9621887207031" y="29.9967193603516" dx="0" dy="0" font-family="Arial" font-size="8.99999973177911pt" fill="#000000" style="text-anchor:start" transform="matrix(0.750000 0.000000 0.000000 0.750000 579.64306640625 174.947387695313)">Final Output </text>
  <text x="32.9648551940918" y="43.7967185974121" dx="0" dy="0" font-family="Arial" font-size="8.99999973177911pt" fill="#000000" style="text-anchor:start" transform="matrix(0.750000 0.000000 0.000000 0.750000 579.64306640625 174.947387695313)">Table</text>
  <path d="M654.043029785156,198.647369384766 C654.043029785156,211.736526489258 637.388000488281,222.347381591797 616.843078613281,222.347381591797 C596.298034667969,222.347381591797 579.64306640625,211.736541748047 579.643005371094,198.647399902344 L579.643005371094,198.647399902344 C579.643005371094,185.558242797852 596.298034667969,174.947387695313 616.843017578125,174.947387695313 C637.388000488281,174.947372436523 654.043029785156,185.558212280273 654.043029785156,198.647384643555 C654.043029785156,198.647384643555 654.043029785156,198.647384643555 654.043029785156,198.647384643555 " stroke="none" fill="none" stroke-width="0.75" stroke-opacity="0" />
  <path d="M-346.671142578125,-60.8726921081543 C-346.671142578125,-56.7305564880371 -350.028991699219,-53.3726921081543 -354.171112060547,-53.3726921081543 C-358.313262939453,-53.372688293457 -361.671112060547,-56.7305488586426 -361.671112060547,-60.8726844787598 L-361.671142578125,-60.8726844787598 C-361.671142578125,-65.0148239135742 -358.313262939453,-68.372688293457 -354.171142578125,-68.372688293457 C-350.028991699219,-68.3726959228516 -346.671142578125,-65.0148391723633 -346.671142578125,-60.8726921081543 C-346.671142578125,-60.8726921081543 -346.671142578125,-60.872688293457 -346.671142578125,-60.872688293457 " stroke="none" fill="none" fill-rule="evenodd" stroke-width="0" fill-opacity="0" />
  <text x="2.70618915557861" y="15.2967185974121" dx="0" dy="0" font-family="Arial" font-size="8.99999973177911pt" fill="#555555" style="text-anchor:start" font-weight="bold" transform="matrix(0.750000 0.000000 0.000000 0.750000 -361.671112060547 -68.372688293457)">P</text>
  <path d="M-346.671142578125,-60.8726921081543 C-346.671142578125,-56.7305564880371 -350.028991699219,-53.3726921081543 -354.171112060547,-53.3726921081543 C-358.313262939453,-53.372688293457 -361.671112060547,-56.7305488586426 -361.671112060547,-60.8726844787598 L-361.671142578125,-60.8726844787598 C-361.671142578125,-65.0148239135742 -358.313262939453,-68.372688293457 -354.171142578125,-68.372688293457 C-350.028991699219,-68.3726959228516 -346.671142578125,-65.0148391723633 -346.671142578125,-60.8726921081543 C-346.671142578125,-60.8726921081543 -346.671142578125,-60.872688293457 -346.671142578125,-60.872688293457 " stroke="none" fill="none" stroke-width="0.75" stroke-opacity="0" />
  <path d="M-186.539306640625,177.413391113281 C-186.539306640625,181.555526733398 -189.897171020508,184.913391113281 -194.039291381836,184.913391113281 C-198.181427001953,184.91340637207 -201.539291381836,181.555541992188 -201.539291381836,177.41340637207 L-201.539306640625,177.41340637207 C-201.539306640625,173.271270751953 -198.181442260742,169.91340637207 -194.039306640625,169.91340637207 C-189.897171020508,169.913391113281 -186.539306640625,173.271255493164 -186.539306640625,177.413391113281 C-186.539306640625,177.413391113281 -186.539306640625,177.41340637207 -186.539306640625,177.41340637207 " stroke="none" fill="none" fill-rule="evenodd" stroke-width="0" fill-opacity="0" />
  <text x="2.70618915557861" y="15.2967185974121" dx="0" dy="0" font-family="Arial" font-size="8.99999973177911pt" fill="#555555" style="text-anchor:start" font-weight="bold" transform="matrix(0.750000 0.000000 0.000000 0.750000 -201.539291381836 169.91340637207)">P</text>
  <path d="M-186.539306640625,177.413391113281 C-186.539306640625,181.555526733398 -189.897171020508,184.913391113281 -194.039291381836,184.913391113281 C-198.181427001953,184.91340637207 -201.539291381836,181.555541992188 -201.539291381836,177.41340637207 L-201.539306640625,177.41340637207 C-201.539306640625,173.271270751953 -198.181442260742,169.91340637207 -194.039306640625,169.91340637207 C-189.897171020508,169.913391113281 -186.539306640625,173.271255493164 -186.539306640625,177.413391113281 C-186.539306640625,177.413391113281 -186.539306640625,177.41340637207 -186.539306640625,177.41340637207 " stroke="none" fill="none" stroke-width="0.75" stroke-opacity="0" />
  <path d="M-71.3581008911133,-90.2083358764648 C-71.3581008911133,-86.0662002563477 -74.7159652709961,-82.7083358764648 -78.8580932617188,-82.7083358764648 C-83.0002288818359,-82.7083282470703 -86.3580932617188,-86.0661926269531 -86.3580932617188,-90.2083282470703 L-86.3581008911133,-90.2083282470703 C-86.3581008911133,-94.3504638671875 -83.0002365112305,-97.7083282470703 -78.8581085205078,-97.7083282470703 C-74.7159729003906,-97.7083358764648 -71.3581085205078,-94.3504791259766 -71.3581008911133,-90.2083358764648 C-71.3581008911133,-90.2083358764648 -71.3581008911133,-90.2083282470703 -71.3581008911133,-90.2083282470703 " stroke="none" fill="none" fill-rule="evenodd" stroke-width="0" fill-opacity="0" />
  <text x="2.70618915557861" y="15.2967185974121" dx="0" dy="0" font-family="Arial" font-size="8.99999973177911pt" fill="#555555" style="text-anchor:start" font-weight="bold" transform="matrix(0.750000 0.000000 0.000000 0.750000 -86.3580932617188 -97.7083282470703)">P</text>
  <path d="M-71.3581008911133,-90.2083358764648 C-71.3581008911133,-86.0662002563477 -74.7159652709961,-82.7083358764648 -78.8580932617188,-82.7083358764648 C-83.0002288818359,-82.7083282470703 -86.3580932617188,-86.0661926269531 -86.3580932617188,-90.2083282470703 L-86.3581008911133,-90.2083282470703 C-86.3581008911133,-94.3504638671875 -83.0002365112305,-97.7083282470703 -78.8581085205078,-97.7083282470703 C-74.7159729003906,-97.7083358764648 -71.3581085205078,-94.3504791259766 -71.3581008911133,-90.2083358764648 C-71.3581008911133,-90.2083358764648 -71.3581008911133,-90.2083282470703 -71.3581008911133,-90.2083282470703 " stroke="none" fill="none" stroke-width="0.75" stroke-opacity="0" />
  <path d="M6.09270286560059,-88.9174880981445 C6.09270286560059,-84.7753524780273 2.73483943939209,-81.4174880981445 -1.40729188919067,-81.4174880981445 C-5.54942607879639,-81.41748046875 -8.90729236602783,-84.7753448486328 -8.90729522705078,-88.91748046875 L-8.9072961807251,-88.91748046875 C-8.90729999542236,-93.0596160888672 -5.54943704605103,-96.41748046875 -1.40730810165405,-96.41748046875 C2.73482704162598,-96.4174880981445 6.09269618988037,-93.0596313476563 6.09270286560059,-88.9174880981445 C6.09270286560059,-88.9174880981445 6.09270286560059,-88.91748046875 6.09270286560059,-88.91748046875 " stroke="none" fill="none" fill-rule="evenodd" stroke-width="0" fill-opacity="0" />
  <text x="2.70618915557861" y="15.2967185974121" dx="0" dy="0" font-family="Arial" font-size="8.99999973177911pt" fill="#555555" style="text-anchor:start" font-weight="bold" transform="matrix(0.750000 0.000000 0.000000 0.750000 -8.90729522705078 -96.41748046875)">P</text>
  <path d="M6.09270286560059,-88.9174880981445 C6.09270286560059,-84.7753524780273 2.73483943939209,-81.4174880981445 -1.40729188919067,-81.4174880981445 C-5.54942607879639,-81.41748046875 -8.90729236602783,-84.7753448486328 -8.90729522705078,-88.91748046875 L-8.9072961807251,-88.91748046875 C-8.90729999542236,-93.0596160888672 -5.54943704605103,-96.41748046875 -1.40730810165405,-96.41748046875 C2.73482704162598,-96.4174880981445 6.09269618988037,-93.0596313476563 6.09270286560059,-88.9174880981445 C6.09270286560059,-88.9174880981445 6.09270286560059,-88.91748046875 6.09270286560059,-88.91748046875 " stroke="none" fill="none" stroke-width="0.75" stroke-opacity="0" />
  <path d="M265.19287109375,87.8208694458008 C265.19287109375,91.963005065918 261.835021972656,95.3208694458008 257.692901611328,95.3208694458008 C253.550765991211,95.3208770751953 250.192901611328,91.9630126953125 250.192901611328,87.8208770751953 L250.192886352539,87.8208770751953 C250.192886352539,83.6787414550781 253.550750732422,80.3208770751953 257.69287109375,80.3208770751953 C261.835021972656,80.3208694458008 265.19287109375,83.6787261962891 265.19287109375,87.8208694458008 C265.19287109375,87.8208694458008 265.19287109375,87.8208770751953 265.19287109375,87.8208770751953 " stroke="none" fill="none" fill-rule="evenodd" stroke-width="0" fill-opacity="0" />
  <text x="2.70618915557861" y="15.2967185974121" dx="0" dy="0" font-family="Arial" font-size="8.99999973177911pt" fill="#555555" style="text-anchor:start" font-weight="bold" transform="matrix(0.750000 0.000000 0.000000 0.750000 250.192901611328 80.3208770751953)">P</text>
  <path d="M265.19287109375,87.8208694458008 C265.19287109375,91.963005065918 261.835021972656,95.3208694458008 257.692901611328,95.3208694458008 C253.550765991211,95.3208770751953 250.192901611328,91.9630126953125 250.192901611328,87.8208770751953 L250.192886352539,87.8208770751953 C250.192886352539,83.6787414550781 253.550750732422,80.3208770751953 257.69287109375,80.3208770751953 C261.835021972656,80.3208694458008 265.19287109375,83.6787261962891 265.19287109375,87.8208694458008 C265.19287109375,87.8208694458008 265.19287109375,87.8208770751953 265.19287109375,87.8208770751953 " stroke="none" fill="none" stroke-width="0.75" stroke-opacity="0" />
  <path d="M377.383361816406,-69.6875076293945 C377.383361816406,-65.5453720092773 374.025512695313,-62.1875038146973 369.883392333984,-62.1875038146973 C365.741241455078,-62.1875 362.383392333984,-65.5453643798828 362.383392333984,-69.6875 L362.383361816406,-69.6875 C362.383361816406,-73.8296356201172 365.741241455078,-77.1875 369.883361816406,-77.1875 C374.025512695313,-77.1875076293945 377.383361816406,-73.8296508789063 377.383361816406,-69.6875076293945 C377.383361816406,-69.6875076293945 377.383361816406,-69.6875 377.383361816406,-69.6875 " stroke="none" fill="none" fill-rule="evenodd" stroke-width="0" fill-opacity="0" />
  <text x="2.70618915557861" y="15.2967185974121" dx="0" dy="0" font-family="Arial" font-size="8.99999973177911pt" fill="#555555" style="text-anchor:start" font-weight="bold" transform="matrix(0.750000 0.000000 0.000000 0.750000 362.383392333984 -77.1875)">P</text>
  <path d="M377.383361816406,-69.6875076293945 C377.383361816406,-65.5453720092773 374.025512695313,-62.1875038146973 369.883392333984,-62.1875038146973 C365.741241455078,-62.1875 362.383392333984,-65.5453643798828 362.383392333984,-69.6875 L362.383361816406,-69.6875 C362.383361816406,-73.8296356201172 365.741241455078,-77.1875 369.883361816406,-77.1875 C374.025512695313,-77.1875076293945 377.383361816406,-73.8296508789063 377.383361816406,-69.6875076293945 C377.383361816406,-69.6875076293945 377.383361816406,-69.6875 377.383361816406,-69.6875 " stroke="none" fill="none" stroke-width="0.75" stroke-opacity="0" />
</svg>